<svg width="600" height="501" viewBox="0 0 600 501" fill="none" xmlns="http://www.w3.org/2000/svg">
<g clip-path="url(#clip0)">
<path fill-rule="evenodd" clip-rule="evenodd" d="M545.494 357.016L319.812 487.401L54.0046 334.104L279.742 203.727L545.494 357.016Z" fill="#D9C593"/>
<path fill-rule="evenodd" clip-rule="evenodd" d="M54 334.1L319.816 487.401L319.803 500.484L54.0429 347.183L54 334.1Z" fill="#B89F61"/>
<path fill-rule="evenodd" clip-rule="evenodd" d="M545.494 357.015L319.816 487.401L319.803 500.484L545.348 370.381L545.494 357.015Z" fill="#A68C49"/>
<path fill-rule="evenodd" clip-rule="evenodd" d="M354.828 418.525L269.279 264.847L339.752 238.339L545.494 357.015L439.798 418.08L354.828 418.525Z" fill="#B89F61"/>
<path fill-rule="evenodd" clip-rule="evenodd" d="M278.992 411.592L242.133 389.811L304.136 352.973L340.914 374.818L278.992 411.592Z" fill="#B89F61"/>
<path fill-rule="evenodd" clip-rule="evenodd" d="M354.862 417.515L175.281 314.118V156.504L354.867 260.008L354.862 417.515Z" fill="#B32D22"/>
<path fill-rule="evenodd" clip-rule="evenodd" d="M462.495 355.731V198.451C415.85 225.225 401.615 232.827 354.867 259.772V417.63C401.323 391.237 416.262 382.359 462.495 355.731Z" fill="#7E2926"/>
<path fill-rule="evenodd" clip-rule="evenodd" d="M354.862 410.543L175.281 307.141V298.696L354.862 402.2V410.543Z" fill="#6E2A26"/>
<path fill-rule="evenodd" clip-rule="evenodd" d="M262.284 348.301H311.368V392.475L262.284 364.214V348.301Z" fill="#6E2A26"/>
<path fill-rule="evenodd" clip-rule="evenodd" d="M355.733 409.639L171.805 303.737V142.312L355.737 248.317L355.733 409.639Z" fill="#CCCCCC"/>
<path fill-rule="evenodd" clip-rule="evenodd" d="M171.805 164.358V141.961L355.801 248.098L355.733 267.597L171.805 164.358Z" fill="#666666"/>
<path fill-rule="evenodd" clip-rule="evenodd" d="M465.968 346.241V185.274C418.191 212.695 403.617 220.48 355.733 248.077V409.639C403.317 382.608 418.619 373.516 465.968 346.241Z" fill="#7F7F7F"/>
<path fill-rule="evenodd" clip-rule="evenodd" d="M304.844 296.427L312.375 384.663L230.714 340.511L219.415 245.803L304.844 296.427Z" fill="#666666"/>
<path fill-rule="evenodd" clip-rule="evenodd" d="M206.29 310.803C206.29 299.005 206.29 266.847 206.29 255.053C199.405 251.135 192.517 247.216 185.625 243.298C185.625 255.066 185.625 287.202 185.625 298.975C192.513 302.914 199.405 306.854 206.29 310.803Z" fill="#7F7F7F"/>
<path fill-rule="evenodd" clip-rule="evenodd" d="M206.29 310.803V287.112C199.401 291.03 192.513 294.949 185.625 298.867V298.97C192.513 302.914 199.405 306.854 206.29 310.803Z" fill="#363A3D"/>
<path fill-rule="evenodd" clip-rule="evenodd" d="M206.29 308.627V255.049C200.053 251.499 193.807 247.944 187.566 244.398V297.908C193.807 301.484 200.049 305.056 206.29 308.627Z" fill="white"/>
<path fill-rule="evenodd" clip-rule="evenodd" d="M206.29 255.563C200.537 252.287 194.785 249.015 189.028 245.743V296.563C194.785 299.857 200.537 303.15 206.29 306.448V255.563Z" fill="#00A1B3"/>
<path fill-rule="evenodd" clip-rule="evenodd" d="M199.465 251.165V304.722L198.124 303.955V250.402L199.465 251.165Z" fill="white"/>
<path fill-rule="evenodd" clip-rule="evenodd" d="M206.169 273.022C200.417 269.746 194.665 266.474 188.908 263.203V264.65C194.66 267.943 200.417 271.237 206.169 274.534V273.022Z" fill="white"/>
<path fill-rule="evenodd" clip-rule="evenodd" d="M206.169 289.36C200.417 286.088 194.665 282.812 188.908 279.541V280.988C194.66 284.281 200.417 287.574 206.169 290.872V289.36Z" fill="white"/>
<path fill-rule="evenodd" clip-rule="evenodd" d="M355.133 396.642C355.133 384.839 355.133 352.686 355.133 340.883C348.248 336.969 327.729 325.299 320.837 321.385C320.837 333.153 320.837 365.289 320.837 377.062C327.729 381.006 348.248 392.693 355.133 396.642Z" fill="#7F7F7F"/>
<path fill-rule="evenodd" clip-rule="evenodd" d="M356.337 396.642C356.337 384.839 356.337 352.686 356.337 340.883C363.221 336.969 394.521 319.167 401.409 315.257C401.409 327.025 401.409 359.161 401.409 370.929C394.521 374.878 363.221 392.693 356.337 396.642Z" fill="#CCCCCC"/>
<path fill-rule="evenodd" clip-rule="evenodd" d="M355.737 397.018V373.332C350.246 376.454 331.857 371.178 323.854 375.452L320.837 377.062L355.737 397.018Z" fill="#363A3D"/>
<path fill-rule="evenodd" clip-rule="evenodd" d="M355.737 397.018V373.332C361.228 376.454 390.393 365.049 398.396 369.319L401.413 370.929L355.737 397.018Z" fill="#363A3D"/>
<path fill-rule="evenodd" clip-rule="evenodd" d="M355.137 394.466V340.887C348.896 337.337 329.024 326.04 322.778 322.49V376C329.019 379.571 348.896 390.89 355.137 394.466Z" fill="white"/>
<path fill-rule="evenodd" clip-rule="evenodd" d="M356.333 394.466V340.888C362.574 337.337 393.226 319.907 399.472 316.357V369.867C393.231 373.443 362.574 390.89 356.333 394.466Z" fill="#E5E5E5"/>
<path fill-rule="evenodd" clip-rule="evenodd" d="M355.137 341.29C349.384 338.018 329.997 327.102 324.24 323.83V374.651C329.997 377.944 349.384 388.877 355.137 392.171V341.29Z" fill="#00A1B3"/>
<path fill-rule="evenodd" clip-rule="evenodd" d="M356.333 341.29C362.085 338.018 392.253 320.974 398.01 317.702V368.523C392.253 371.816 362.085 388.882 356.333 392.175V341.29Z" fill="#006873"/>
<path fill-rule="evenodd" clip-rule="evenodd" d="M334.678 329.256V382.809L333.336 382.042V328.494L334.678 329.256Z" fill="white"/>
<path fill-rule="evenodd" clip-rule="evenodd" d="M376.792 329.256V382.809L378.134 382.042V328.494L376.792 329.256Z" fill="#E5E5E5"/>
<path fill-rule="evenodd" clip-rule="evenodd" d="M355.133 358.908C349.38 355.636 329.877 344.562 324.12 341.29V342.733C329.877 346.031 349.384 357.118 355.133 360.416V358.908Z" fill="white"/>
<path fill-rule="evenodd" clip-rule="evenodd" d="M356.337 358.908C362.089 355.636 393.038 337.984 398.794 334.712V336.155C393.038 339.453 362.089 357.118 356.337 360.411V358.908Z" fill="#E5E5E5"/>
<path fill-rule="evenodd" clip-rule="evenodd" d="M355.133 375.25C349.38 371.974 329.877 360.904 324.12 357.632V359.08C329.877 362.373 349.384 373.465 355.133 376.758V375.25Z" fill="white"/>
<path fill-rule="evenodd" clip-rule="evenodd" d="M356.337 375.25C362.089 371.974 393.038 354.326 398.794 351.054V352.497C393.038 355.791 362.089 373.46 356.337 376.754V375.25Z" fill="#E5E5E5"/>
<path fill-rule="evenodd" clip-rule="evenodd" d="M311.586 353.011C311.586 341.213 311.586 327.744 311.586 315.946C304.702 312.028 297.814 308.105 290.921 304.191C290.921 315.959 290.921 329.406 290.921 341.179C297.814 345.123 304.702 349.067 311.586 353.011Z" fill="#999999"/>
<path fill-rule="evenodd" clip-rule="evenodd" d="M311.586 353.011V329.325C304.698 333.243 297.81 337.157 290.921 341.08V341.183C297.814 345.123 304.702 349.067 311.586 353.011Z" fill="#363A3D"/>
<path fill-rule="evenodd" clip-rule="evenodd" d="M311.587 350.84V315.95C305.345 312.4 299.104 308.846 292.863 305.3V340.121C299.109 343.693 305.35 347.264 311.587 350.84Z" fill="#E5E5E5"/>
<path fill-rule="evenodd" clip-rule="evenodd" d="M311.586 316.738C305.834 313.462 300.077 310.191 294.325 306.919V338.768C300.077 342.061 305.834 345.354 311.586 348.652V316.738Z" fill="#00A1B3"/>
<path fill-rule="evenodd" clip-rule="evenodd" d="M252.725 419.681L252.695 419.698L164.295 367.893L164.27 363.949L252.695 415.754L252.725 419.681Z" fill="#B32D22"/>
<path fill-rule="evenodd" clip-rule="evenodd" d="M305.234 385.254L252.695 415.754L164.27 363.949L215.844 333.62L305.234 385.254Z" fill="#D0541B"/>
<path fill-rule="evenodd" clip-rule="evenodd" d="M305.478 389.083L252.725 419.677L252.695 415.754L305.478 385.135V389.083Z" fill="#982724"/>
<path fill-rule="evenodd" clip-rule="evenodd" d="M274.127 403.318L259.562 394.911L291.102 376.706L305.478 385.134L274.127 403.318Z" fill="#7E2926"/>
<path fill-rule="evenodd" clip-rule="evenodd" d="M252.725 410.834L252.695 410.855L173.631 364.78L173.601 360.836L260.599 359.559L252.725 410.834Z" fill="#B32D22"/>
<path fill-rule="evenodd" clip-rule="evenodd" d="M301.175 378.843L252.695 406.911L173.601 360.836L221.995 332.417L301.175 378.843Z" fill="#D0541B"/>
<path fill-rule="evenodd" clip-rule="evenodd" d="M301.337 382.71L252.725 410.834L252.746 406.881L301.342 378.698L301.337 382.71Z" fill="#982724"/>
<path fill-rule="evenodd" clip-rule="evenodd" d="M269.163 397.374L254.594 388.972L286.425 370.634L301.342 378.698L269.163 397.374Z" fill="#7E2926"/>
<path fill-rule="evenodd" clip-rule="evenodd" d="M252.63 401.999L252.6 402.016L182.984 361.713L182.954 357.765L252.652 398.042L252.63 401.999Z" fill="#B32D22"/>
<path fill-rule="evenodd" clip-rule="evenodd" d="M296.614 372.625L252.6 398.072L182.954 357.765L226.457 332.177L296.614 372.625Z" fill="#D0541B"/>
<path fill-rule="evenodd" clip-rule="evenodd" d="M264.834 391.001L198.141 352.527L229.964 334.198L296.995 372.407L264.834 391.001Z" fill="#7E2926"/>
<path fill-rule="evenodd" clip-rule="evenodd" d="M296.995 376.351L252.63 401.999L252.652 398.042L296.995 372.407V376.351Z" fill="#982724"/>
<path fill-rule="evenodd" clip-rule="evenodd" d="M428.341 354.891C428.341 343.097 428.341 225.208 428.341 213.414C435.225 209.496 442.117 205.573 449.006 201.659C449.006 213.427 449.006 331.29 449.006 343.063C442.117 347.007 435.229 350.947 428.341 354.891Z" fill="#B2B2B2"/>
<path fill-rule="evenodd" clip-rule="evenodd" d="M428.341 354.891V331.205C435.229 335.123 442.122 339.038 449.006 342.96V343.063C442.117 347.007 435.229 350.947 428.341 354.891Z" fill="#363A3D"/>
<path fill-rule="evenodd" clip-rule="evenodd" d="M428.341 352.72V213.414C434.582 209.864 440.823 206.31 447.068 202.764V342.001C440.823 345.573 434.582 349.144 428.341 352.72Z" fill="#D8E1E2"/>
<path fill-rule="evenodd" clip-rule="evenodd" d="M428.341 213.924C434.093 210.652 439.85 207.376 445.602 204.104V340.673C439.846 343.971 434.093 347.26 428.341 350.557V213.924Z" fill="#006873"/>
<path fill-rule="evenodd" clip-rule="evenodd" d="M435.169 209.53V347.23L436.511 346.463V208.768L435.169 209.53Z" fill="#D8E1E2"/>
<path fill-rule="evenodd" clip-rule="evenodd" d="M206.29 227.821C206.29 216.022 206.29 183.865 206.29 172.071C199.405 168.152 192.517 164.234 185.625 160.315C185.625 172.084 185.625 204.22 185.625 215.992C192.513 219.937 199.405 223.876 206.29 227.821Z" fill="#7F7F7F"/>
<path fill-rule="evenodd" clip-rule="evenodd" d="M206.29 227.821V204.13C199.401 208.048 192.513 211.967 185.625 215.885V215.988C192.513 219.937 199.405 223.876 206.29 227.821Z" fill="#363A3D"/>
<path fill-rule="evenodd" clip-rule="evenodd" d="M206.29 225.649V172.071C200.053 168.521 193.807 164.966 187.566 161.42V214.93C193.807 218.502 200.049 222.074 206.29 225.649Z" fill="white"/>
<path fill-rule="evenodd" clip-rule="evenodd" d="M206.29 172.581C200.537 169.304 194.785 166.033 189.028 162.761V213.581C194.785 216.875 200.537 220.168 206.29 223.465V172.581Z" fill="#00A1B3"/>
<path fill-rule="evenodd" clip-rule="evenodd" d="M342.102 306.015C342.102 294.217 342.102 262.059 342.102 250.265C335.218 246.347 328.329 242.424 321.437 238.51C321.437 250.278 321.437 282.414 321.437 294.187C328.329 298.131 335.218 302.071 342.102 306.015Z" fill="#7F7F7F"/>
<path fill-rule="evenodd" clip-rule="evenodd" d="M342.102 306.015V282.324C335.213 286.243 328.325 290.157 321.437 294.08V294.182C328.329 298.131 335.218 302.071 342.102 306.015Z" fill="#363A3D"/>
<path fill-rule="evenodd" clip-rule="evenodd" d="M342.102 303.844V250.265C335.861 246.715 329.619 243.161 323.378 239.615V293.125C329.619 296.696 335.861 300.268 342.102 303.844Z" fill="white"/>
<path fill-rule="evenodd" clip-rule="evenodd" d="M342.102 250.775C336.349 247.503 330.597 244.227 324.84 240.955V291.776C330.597 295.069 336.354 298.362 342.102 301.66V250.775Z" fill="#00A1B3"/>
<path fill-rule="evenodd" clip-rule="evenodd" d="M428.461 231.384C434.213 228.112 439.966 224.836 445.723 221.564V223.011C439.966 226.305 434.213 229.598 428.461 232.895V231.384Z" fill="#D8E1E2"/>
<path fill-rule="evenodd" clip-rule="evenodd" d="M428.465 248.398C434.218 245.126 439.97 241.85 445.727 238.578C445.727 239.058 445.727 239.542 445.727 240.022C439.97 243.319 434.218 246.608 428.465 249.906C428.465 249.405 428.465 248.903 428.465 248.398Z" fill="#D8E1E2"/>
<path fill-rule="evenodd" clip-rule="evenodd" d="M428.465 265.417C434.218 262.145 439.97 258.869 445.727 255.597C445.727 256.077 445.727 256.561 445.727 257.04C439.97 260.338 434.218 263.627 428.465 266.924C428.465 266.423 428.465 265.918 428.465 265.417Z" fill="#D8E1E2"/>
<path fill-rule="evenodd" clip-rule="evenodd" d="M428.465 282.431C434.218 279.16 439.97 275.883 445.727 272.612C445.727 273.091 445.727 273.575 445.727 274.055C439.97 277.352 434.218 280.641 428.465 283.939C428.465 283.438 428.465 282.937 428.465 282.431Z" fill="#D8E1E2"/>
<path fill-rule="evenodd" clip-rule="evenodd" d="M428.465 299.446C434.218 296.174 439.97 292.898 445.727 289.626C445.727 290.106 445.727 290.59 445.727 291.073C439.97 294.367 434.218 297.66 428.465 300.958C428.465 300.452 428.465 299.951 428.465 299.446Z" fill="#D8E1E2"/>
<path fill-rule="evenodd" clip-rule="evenodd" d="M428.465 316.464C434.218 313.193 439.97 309.916 445.727 306.645C445.727 307.124 445.727 307.608 445.727 308.092C439.97 311.385 434.218 314.679 428.465 317.976C428.465 317.471 428.465 316.965 428.465 316.464Z" fill="#D8E1E2"/>
<path fill-rule="evenodd" clip-rule="evenodd" d="M428.461 333.479C434.213 330.207 439.966 326.931 445.723 323.659V325.106C439.966 328.4 434.213 331.693 428.461 334.99V333.479Z" fill="#D8E1E2"/>
<path fill-rule="evenodd" clip-rule="evenodd" d="M345.179 335.093V388.646L343.842 387.88V334.331L345.179 335.093Z" fill="white"/>
<path fill-rule="evenodd" clip-rule="evenodd" d="M366.29 335.093V388.646L367.632 387.88V334.331L366.29 335.093Z" fill="#E5E5E5"/>
<path fill-rule="evenodd" clip-rule="evenodd" d="M355.737 341.222V394.774L354.395 394.008V340.459L355.737 341.222Z" fill="white"/>
<path fill-rule="evenodd" clip-rule="evenodd" d="M355.737 341.222V394.774L357.074 394.008V340.459L355.737 341.222Z" fill="#E5E5E5"/>
<path fill-rule="evenodd" clip-rule="evenodd" d="M387.401 323.633V376.754L388.743 375.987V322.871L387.401 323.633Z" fill="#E5E5E5"/>
<path fill-rule="evenodd" clip-rule="evenodd" d="M284.925 272.873C284.925 261.07 284.925 228.917 284.925 217.119C278.041 213.205 246.741 195.402 239.853 191.492C239.853 203.261 239.853 235.396 239.853 247.165C246.741 251.105 278.036 268.92 284.925 272.873Z" fill="#7F7F7F"/>
<path fill-rule="evenodd" clip-rule="evenodd" d="M284.925 272.873V249.182C279.434 252.304 250.869 241.281 242.866 245.55L239.848 247.16L284.925 272.873Z" fill="#363A3D"/>
<path fill-rule="evenodd" clip-rule="evenodd" d="M284.925 270.693V217.114C278.684 213.564 248.031 196.134 241.786 192.584V246.094C248.031 249.67 278.688 267.121 284.925 270.693Z" fill="white"/>
<path fill-rule="evenodd" clip-rule="evenodd" d="M284.925 217.517C279.172 214.241 249.004 197.196 243.247 193.925V244.745C249.004 248.038 279.172 265.104 284.925 268.397V217.517Z" fill="#00A1B3"/>
<path fill-rule="evenodd" clip-rule="evenodd" d="M191.754 362.861L197.018 353.864L218.952 354.052L223.148 362.823L191.754 362.861Z" fill="#7E2926"/>
<path fill-rule="evenodd" clip-rule="evenodd" d="M200.529 357.808L191.754 362.861V277.575L200.529 281.605V357.808Z" fill="#7F7F7F"/>
<path fill-rule="evenodd" clip-rule="evenodd" d="M252.643 398.038L256.072 389.027L268.07 389.13L252.665 398.038H252.643Z" fill="#7E2926"/>
<path fill-rule="evenodd" clip-rule="evenodd" d="M271.89 390.86L273.523 394.847L265.246 399.639L256.686 399.648L271.89 390.86Z" fill="#7E2926"/>
<path fill-rule="evenodd" clip-rule="evenodd" d="M280.428 394.787L282.061 398.774L273.788 403.566L265.228 403.575L280.428 394.787Z" fill="#7E2926"/>
<path fill-rule="evenodd" clip-rule="evenodd" d="M308.732 315.111L311.591 348.596V348.656C305.838 345.358 300.082 342.07 294.329 338.772V306.923L308.732 315.111Z" fill="#006873"/>
<path fill-rule="evenodd" clip-rule="evenodd" d="M304.767 312.85V346.93L303.425 346.164V312.088L304.767 312.85Z" fill="#E5E5E5"/>
<path fill-rule="evenodd" clip-rule="evenodd" d="M311.466 331.573C305.714 328.297 299.962 325.025 294.205 321.753V323.201C299.962 326.494 305.718 329.787 311.466 333.085V331.573Z" fill="#E5E5E5"/>
<path fill-rule="evenodd" clip-rule="evenodd" d="M342.102 256.411L324.84 246.724V240.959C330.597 244.231 336.354 247.503 342.102 250.779V256.411Z" fill="#006873"/>
<path fill-rule="evenodd" clip-rule="evenodd" d="M284.925 224.318L243.247 200.922V193.929C249.004 197.201 279.172 214.245 284.925 217.521V224.318Z" fill="#006873"/>
<path fill-rule="evenodd" clip-rule="evenodd" d="M206.29 180.173L189.028 170.482V162.756C194.785 166.028 200.537 169.3 206.29 172.576V180.173Z" fill="#006873"/>
<path fill-rule="evenodd" clip-rule="evenodd" d="M199.465 168.187V221.739L198.124 220.973V167.424L199.465 168.187Z" fill="white"/>
<path fill-rule="evenodd" clip-rule="evenodd" d="M206.169 190.04C200.417 186.768 194.665 183.492 188.908 180.22V181.668C194.66 184.961 200.417 188.254 206.169 191.552V190.04Z" fill="white"/>
<path fill-rule="evenodd" clip-rule="evenodd" d="M206.169 206.382C200.417 203.106 194.665 199.834 188.908 196.562V198.01C194.66 201.303 200.417 204.596 206.169 207.894V206.382Z" fill="white"/>
<path fill-rule="evenodd" clip-rule="evenodd" d="M264.465 205.487V259.04L263.128 258.274V204.721L264.465 205.487Z" fill="white"/>
<path fill-rule="evenodd" clip-rule="evenodd" d="M284.925 235.14C279.172 231.868 248.224 214.215 242.467 210.943V212.391C248.224 215.684 279.172 233.354 284.925 236.647V235.14Z" fill="white"/>
<path fill-rule="evenodd" clip-rule="evenodd" d="M284.925 251.477C279.172 248.205 248.224 230.553 242.467 227.281V228.724C248.224 232.022 279.172 249.687 284.925 252.98V251.477Z" fill="white"/>
<path fill-rule="evenodd" clip-rule="evenodd" d="M274.972 211.32V264.877L273.63 264.111V210.558L274.972 211.32Z" fill="white"/>
<path fill-rule="evenodd" clip-rule="evenodd" d="M253.861 199.86V252.985L252.519 252.214V199.098L253.861 199.86Z" fill="white"/>
<path fill-rule="evenodd" clip-rule="evenodd" d="M335.278 246.381V299.934L333.936 299.167V245.619L335.278 246.381Z" fill="white"/>
<path fill-rule="evenodd" clip-rule="evenodd" d="M341.982 268.239C336.229 264.967 330.477 261.691 324.72 258.419V259.867C330.477 263.16 336.234 266.453 341.982 269.751V268.239Z" fill="white"/>
<path fill-rule="evenodd" clip-rule="evenodd" d="M341.982 284.577C336.229 281.301 330.477 278.029 324.72 274.757V276.2C330.477 279.498 336.234 282.791 341.982 286.084V284.577Z" fill="white"/>
<path fill-rule="evenodd" clip-rule="evenodd" d="M263.565 352.746C263.565 340.947 263.565 309.103 263.565 297.304C256.681 293.386 249.789 289.463 242.9 285.549C242.9 297.321 242.9 329.453 242.9 341.226C249.789 345.174 256.681 348.802 263.565 352.746Z" fill="#999999"/>
<path fill-rule="evenodd" clip-rule="evenodd" d="M280.788 364.133L280.724 349.457C274.912 352.763 260.938 330.896 252.515 335.706L241.987 341.718L280.788 364.133Z" fill="#7E2926"/>
<path fill-rule="evenodd" clip-rule="evenodd" d="M263.497 298.289C257.744 295.013 251.992 291.741 246.235 288.47V339.29C251.992 342.583 257.744 345.877 263.497 349.174V298.289Z" fill="#905E15"/>
<path fill-rule="evenodd" clip-rule="evenodd" d="M261.907 331.085C257.213 328.413 252.519 325.74 247.821 323.072V333.727C252.515 336.417 257.213 339.102 261.907 341.791V331.085Z" fill="#905E15"/>
<path fill-rule="evenodd" clip-rule="evenodd" d="M261.906 331.085C257.436 328.541 252.969 325.997 248.494 323.458V333.312C252.965 335.873 257.436 338.429 261.906 340.99V331.085Z" fill="#006873"/>
<path fill-rule="evenodd" clip-rule="evenodd" d="M280.724 308.152C274.972 304.876 269.219 301.604 263.462 298.332V349.153C269.219 352.446 274.976 355.739 280.724 359.037V308.152Z" fill="#905E15"/>
<path fill-rule="evenodd" clip-rule="evenodd" d="M279.134 340.952C274.44 338.279 269.746 335.611 265.048 332.939V343.371C269.742 346.056 274.44 348.746 279.134 351.431V340.952Z" fill="#905E15"/>
<path fill-rule="evenodd" clip-rule="evenodd" d="M279.134 340.952C274.663 338.408 270.197 335.864 265.721 333.324V343.067C270.192 345.628 274.663 348.185 279.134 350.746V340.952Z" fill="#006873"/>
<path d="M263.767 298.444V349.324L263.437 349.136V298.255L263.767 298.444Z" fill="#905E15"/>
<path fill-rule="evenodd" clip-rule="evenodd" d="M261.907 318.057C257.213 315.385 252.519 312.713 247.821 310.045V320.7C252.515 323.389 257.213 326.074 261.907 328.764V318.057Z" fill="#905E15"/>
<path fill-rule="evenodd" clip-rule="evenodd" d="M261.907 305.03C257.213 302.358 252.519 299.685 247.821 297.017V307.672C252.515 310.362 257.213 313.047 261.907 315.736V305.03Z" fill="#905E15"/>
<path fill-rule="evenodd" clip-rule="evenodd" d="M261.906 318.057C257.436 315.514 252.969 312.97 248.494 310.43V320.284C252.965 322.845 257.436 325.402 261.906 327.963V318.057Z" fill="#006873"/>
<path fill-rule="evenodd" clip-rule="evenodd" d="M261.906 305.03C257.436 302.486 252.969 299.942 248.494 297.403V307.257C252.965 309.818 257.436 312.375 261.906 314.935V305.03Z" fill="#006873"/>
<path fill-rule="evenodd" clip-rule="evenodd" d="M279.134 327.924C274.44 325.252 269.746 322.584 265.048 319.912V330.344C269.742 333.033 274.44 335.718 279.134 338.404V327.924Z" fill="#905E15"/>
<path fill-rule="evenodd" clip-rule="evenodd" d="M279.134 314.897C274.44 312.225 269.746 309.557 265.048 306.884V317.316C269.742 320.002 274.44 322.691 279.134 325.376V314.897Z" fill="#905E15"/>
<path fill-rule="evenodd" clip-rule="evenodd" d="M279.134 327.924C274.663 325.38 270.197 322.837 265.721 320.297V330.04C270.192 332.601 274.663 335.157 279.134 337.718V327.924Z" fill="#006873"/>
<path fill-rule="evenodd" clip-rule="evenodd" d="M279.134 314.897C274.663 312.353 270.197 309.809 265.721 307.27V317.012C270.192 319.573 274.663 322.13 279.134 324.691V314.897Z" fill="#006873"/>
<path fill-rule="evenodd" clip-rule="evenodd" d="M264.479 330.622C264.813 330.798 265.087 331.312 265.087 331.766C265.087 332.22 264.813 332.447 264.479 332.267C264.144 332.091 263.87 331.577 263.87 331.123C263.874 330.674 264.144 330.447 264.479 330.622Z" fill="#E8A611"/>
<path fill-rule="evenodd" clip-rule="evenodd" d="M264.406 330.674C264.74 330.853 265.014 331.363 265.014 331.817C265.014 332.271 264.74 332.498 264.406 332.318C264.071 332.142 263.797 331.629 263.797 331.175C263.797 330.721 264.067 330.494 264.406 330.674Z" fill="#BA7823"/>
<path fill-rule="evenodd" clip-rule="evenodd" d="M264.247 331.179C264.393 331.256 264.513 331.479 264.513 331.68C264.513 331.877 264.393 331.976 264.247 331.899C264.101 331.821 263.981 331.599 263.981 331.402C263.985 331.2 264.101 331.102 264.247 331.179Z" fill="#934E26"/>
<path fill-rule="evenodd" clip-rule="evenodd" d="M263.505 332.643C263.96 332.643 264.328 332.275 264.328 331.821C264.328 331.367 263.96 330.999 263.505 330.999C263.051 330.999 262.682 331.367 262.682 331.821C262.682 332.275 263.051 332.643 263.505 332.643Z" fill="#E8A611"/>
<path fill-rule="evenodd" clip-rule="evenodd" d="M252.617 398.068L252.613 398.072L243.817 392.989V320.717L252.043 317.526H253.183L252.669 316.683L252.617 398.068Z" fill="#E5E5E5"/>
<path fill-rule="evenodd" clip-rule="evenodd" d="M191.754 362.861L182.954 357.936L182.95 285.793L191.175 282.607H192.316L191.801 281.759L191.754 362.861Z" fill="#E5E5E5"/>
<path fill-rule="evenodd" clip-rule="evenodd" d="M261.349 393.031L252.618 398.068V312.499L261.396 316.529L261.349 393.031Z" fill="#7F7F7F"/>
<path fill-rule="evenodd" clip-rule="evenodd" d="M182.95 302.525V285.793L191.175 282.607H192.316L191.801 281.759L191.788 307.621L182.95 302.525Z" fill="#666666"/>
<path fill-rule="evenodd" clip-rule="evenodd" d="M243.817 337.629V320.503L252.043 317.317H253.183L252.669 316.469L252.652 342.725L243.817 337.629Z" fill="#666666"/>
<path fill-rule="evenodd" clip-rule="evenodd" d="M304.878 290.576L248.348 329.085L162.696 279.686L219.243 241.178L304.878 290.576Z" fill="#BF883B"/>
<path fill-rule="evenodd" clip-rule="evenodd" d="M162.696 279.686L248.348 329.085L248.344 334.862L162.705 285.463L162.696 279.686Z" fill="#905E15"/>
<path fill-rule="evenodd" clip-rule="evenodd" d="M304.878 290.577L248.348 329.085L248.344 334.862L304.844 296.426L304.878 290.577Z" fill="#805312"/>
<path fill-rule="evenodd" clip-rule="evenodd" d="M361.198 258.218L155.032 139.383V131.563L361.202 250.163L361.198 258.218Z" fill="#905E15"/>
<path fill-rule="evenodd" clip-rule="evenodd" d="M487.074 185.822V178.636L361.202 250.163V258.218L487.074 185.822Z" fill="#805312"/>
<path fill-rule="evenodd" clip-rule="evenodd" d="M363.11 122.509L361.232 250.561L154.985 131.58L291.08 80.9263L363.11 122.509Z" fill="#BF883B"/>
<path fill-rule="evenodd" clip-rule="evenodd" d="M363.11 122.51L361.232 250.561L487.224 178.55L363.11 122.51Z" fill="#905E15"/>
<path fill-rule="evenodd" clip-rule="evenodd" d="M291.153 81.1532L280.265 59.2439L487.22 178.55L363.11 122.509L291.153 81.1532Z" fill="#805312"/>
<path fill-rule="evenodd" clip-rule="evenodd" d="M280.265 59.2439L154.985 131.58L291.153 81.1489L280.265 59.2439Z" fill="#905E15"/>
<path fill-rule="evenodd" clip-rule="evenodd" d="M364.198 63.0296L343.478 75.0121L332.8 68.8195L353.071 56.7129L364.198 63.0296Z" fill="#D0541B"/>
<path fill-rule="evenodd" clip-rule="evenodd" d="M365.407 112.206L341.99 107.671L342.012 76.768L365.407 63.2352V112.206Z" fill="#982724"/>
<path fill-rule="evenodd" clip-rule="evenodd" d="M366.954 60.7728L341.463 75.5132L328.329 67.8946L353.263 53L366.954 60.7728Z" fill="#E5E5E5"/>
<path fill-rule="evenodd" clip-rule="evenodd" d="M361.382 60.9869L342.273 72.0358L334.172 67.3336L352.869 56.1691L361.382 60.9869Z" fill="#666666"/>
<path fill-rule="evenodd" clip-rule="evenodd" d="M352.916 65.8819L352.921 56.1948L361.382 60.9869L352.916 65.8819Z" fill="#7F7F7F"/>
<path fill-rule="evenodd" clip-rule="evenodd" d="M343.405 123.623L292.212 197.847L292.1 161.78L343.405 123.623Z" fill="#7F7F7F"/>
<path fill-rule="evenodd" clip-rule="evenodd" d="M251.439 136.74L292.096 160.384L292.212 197.847L251.366 173.917L251.439 136.74Z" fill="#CCCCCC"/>
<path fill-rule="evenodd" clip-rule="evenodd" d="M341.99 107.671L329.902 100.677L329.872 69.7875L342.012 76.768L341.99 107.671Z" fill="#B32D22"/>
<path fill-rule="evenodd" clip-rule="evenodd" d="M341.497 84.652L328.359 77.0548L328.329 67.8945L341.523 75.4831L341.497 84.652Z" fill="#CCCCCC"/>
<path fill-rule="evenodd" clip-rule="evenodd" d="M366.955 69.933L341.497 84.652L341.523 75.4831L366.955 60.7727V69.933Z" fill="#7F7F7F"/>
<path fill-rule="evenodd" clip-rule="evenodd" d="M292.117 167.9L251.422 144.427L251.439 136.882L251.537 136.8L292.096 160.384L292.117 167.9Z" fill="#666666"/>
<path fill-rule="evenodd" clip-rule="evenodd" d="M351.026 115.559L293.455 162.183L246.201 134.929L303.781 88.3093L351.026 115.559Z" fill="#DBA55A"/>
<path fill-rule="evenodd" clip-rule="evenodd" d="M351.026 115.559L293.455 162.183V165.369L346.577 122.364L351.026 115.559Z" fill="#805312"/>
<path fill-rule="evenodd" clip-rule="evenodd" d="M280.377 186.379C280.377 176.653 280.377 166.195 280.377 156.47C274.701 153.236 269.022 150.007 263.338 146.778C263.338 156.483 263.338 166.923 263.338 176.628C269.022 179.878 274.701 183.128 280.377 186.379Z" fill="#7F7F7F"/>
<path fill-rule="evenodd" clip-rule="evenodd" d="M280.377 186.379V166.846C274.697 170.075 269.017 173.309 263.338 176.538V176.623C269.022 179.878 274.701 183.128 280.377 186.379Z" fill="#E5E5E5"/>
<path fill-rule="evenodd" clip-rule="evenodd" d="M280.377 184.589V156.474C275.233 153.545 270.085 150.616 264.937 147.691V175.75C270.089 178.696 275.233 181.642 280.377 184.589Z" fill="white"/>
<path fill-rule="evenodd" clip-rule="evenodd" d="M280.376 156.474C275.636 153.776 270.891 151.074 266.141 148.376V174.636C270.886 177.351 275.631 180.066 280.376 182.786V156.474Z" fill="#00A1B3"/>
<path fill-rule="evenodd" clip-rule="evenodd" d="M280.376 159.72L266.141 151.511V148.376C270.886 151.074 275.631 153.772 280.376 156.474V159.72Z" fill="#006873"/>
<path fill-rule="evenodd" clip-rule="evenodd" d="M274.753 153.266V181.364L273.647 180.734V152.641L274.753 153.266Z" fill="white"/>
<path fill-rule="evenodd" clip-rule="evenodd" d="M280.282 168.701C275.541 165.998 270.796 163.3 266.047 160.602V161.797C270.792 164.512 275.537 167.227 280.282 169.943V168.701Z" fill="white"/>
<path fill-rule="evenodd" clip-rule="evenodd" d="M246.201 134.929L293.455 162.183V165.369L246.209 138.115L246.201 134.929Z" fill="#905E15"/>
</g>
<defs>
<clipPath id="clip0">
<rect width="600" height="500.484" fill="white"/>
</clipPath>
</defs>
</svg>
