<svg width="600" height="500" viewBox="0 0 600 500" fill="none" xmlns="http://www.w3.org/2000/svg">
<path fill-rule="evenodd" clip-rule="evenodd" d="M545.8 356.566L320.439 486.909L55.0044 333.665L280.425 203.334L545.8 356.566Z" fill="#D9C593"/>
<path fill-rule="evenodd" clip-rule="evenodd" d="M55 333.665L320.439 486.909L320.426 499.985L55.0429 346.74L55 333.665Z" fill="#B89F61"/>
<path fill-rule="evenodd" clip-rule="evenodd" d="M545.799 356.566L320.439 486.909L320.426 499.985L545.654 369.929L545.799 356.566Z" fill="#A68C49"/>
<path fill-rule="evenodd" clip-rule="evenodd" d="M355.403 418.055L273.404 263.902L329.929 248.764L515.618 355.987L409.747 417.772L355.403 418.055Z" fill="#B89F61"/>
<path fill-rule="evenodd" clip-rule="evenodd" d="M355.326 418.029L175.767 314.532V302.164L355.331 405.76L355.326 418.029Z" fill="#B32D22"/>
<path fill-rule="evenodd" clip-rule="evenodd" d="M462.947 356.185V344.147C416.306 370.945 402.075 378.554 355.331 405.524V418.141C401.783 391.724 416.721 382.841 462.947 356.185Z" fill="#7E2926"/>
<path fill-rule="evenodd" clip-rule="evenodd" d="M355.326 411.05L175.767 307.552V299.098L355.331 402.699L355.326 411.05Z" fill="#6E2A26"/>
<path fill-rule="evenodd" clip-rule="evenodd" d="M356.201 410.145L172.29 304.144V224.98L356.201 330.848V410.145Z" fill="#CCCCCC"/>
<path fill-rule="evenodd" clip-rule="evenodd" d="M466.419 346.689V267.224L356.201 330.844V410.141C403.776 383.086 419.075 373.989 466.419 346.689Z" fill="#7F7F7F"/>
<path fill-rule="evenodd" clip-rule="evenodd" d="M206.771 311.214C206.771 299.407 206.771 267.216 206.771 255.409C199.887 251.487 192.998 247.564 186.11 243.646C186.11 255.426 186.11 287.592 186.11 299.373C192.998 303.321 199.887 307.265 206.771 311.214Z" fill="#7F7F7F"/>
<path fill-rule="evenodd" clip-rule="evenodd" d="M206.771 311.214V287.502C199.882 291.42 192.994 295.343 186.11 299.27V299.373C192.998 303.321 199.887 307.265 206.771 311.214Z" fill="#363A3D"/>
<path fill-rule="evenodd" clip-rule="evenodd" d="M206.771 309.04V255.409C200.534 251.855 194.293 248.301 188.047 244.747V298.31C194.293 301.889 200.534 305.46 206.771 309.04Z" fill="white"/>
<path fill-rule="evenodd" clip-rule="evenodd" d="M206.771 255.924C201.018 252.644 195.266 249.369 189.509 246.093V296.959C195.266 300.256 201.018 303.553 206.771 306.849V255.924Z" fill="#00A1B3"/>
<path fill-rule="evenodd" clip-rule="evenodd" d="M199.951 251.525V305.126L198.609 304.359V250.758L199.951 251.525Z" fill="white"/>
<path fill-rule="evenodd" clip-rule="evenodd" d="M206.651 273.398C200.898 270.122 195.146 266.843 189.389 263.567V265.016C195.141 268.313 200.898 271.61 206.651 274.907V273.398Z" fill="white"/>
<path fill-rule="evenodd" clip-rule="evenodd" d="M206.651 289.753C200.898 286.477 195.146 283.198 189.389 279.922V281.371C195.141 284.668 200.898 287.965 206.651 291.262V289.753Z" fill="white"/>
<path fill-rule="evenodd" clip-rule="evenodd" d="M355.601 397.134C355.601 385.323 355.601 353.141 355.601 341.326C348.717 337.407 328.197 325.725 321.309 321.807C321.309 333.588 321.309 365.753 321.309 377.534C328.197 381.487 348.712 393.182 355.601 397.134Z" fill="#7F7F7F"/>
<path fill-rule="evenodd" clip-rule="evenodd" d="M356.801 397.134C356.801 385.323 356.801 353.141 356.801 341.326C363.685 337.407 394.98 319.586 401.869 315.672C401.869 327.453 401.869 359.618 401.869 371.399C394.98 375.348 363.685 393.182 356.801 397.134Z" fill="#B2B2B2"/>
<path fill-rule="evenodd" clip-rule="evenodd" d="M356.201 397.512V373.8C350.71 376.925 332.325 371.644 324.322 375.922L321.305 377.534L356.201 397.512Z" fill="#E5E5E5"/>
<path fill-rule="evenodd" clip-rule="evenodd" d="M356.201 397.512V373.8C361.692 376.925 390.853 365.509 398.855 369.783L401.873 371.395L356.201 397.512Z" fill="#E5E5E5"/>
<path fill-rule="evenodd" clip-rule="evenodd" d="M356.201 341.673C350.448 338.398 330.461 327.127 324.704 323.852L324.708 375.12C330.461 378.417 350.453 389.705 356.205 393.002L356.201 341.673Z" fill="#363A3D"/>
<path fill-rule="evenodd" clip-rule="evenodd" d="M356.201 341.673C361.953 338.398 392.717 320.988 398.47 317.717V368.986C392.717 372.282 361.949 389.709 356.201 393.006V341.673Z" fill="#363A3D"/>
<path fill-rule="evenodd" clip-rule="evenodd" d="M312.059 353.462C312.059 341.656 312.059 328.173 312.059 316.362C305.175 312.44 298.287 308.517 291.398 304.599C291.398 316.379 291.398 329.836 291.398 341.621C298.287 345.57 305.175 349.514 312.059 353.462Z" fill="#999999"/>
<path fill-rule="evenodd" clip-rule="evenodd" d="M312.059 353.462V329.751C305.171 333.669 302.063 335.5 295.179 339.426L291.398 341.621C298.287 345.57 305.175 349.514 312.059 353.462Z" fill="#E5E5E5"/>
<path fill-rule="evenodd" clip-rule="evenodd" d="M312.059 316.367C306.306 313.091 300.935 310.03 295.179 306.755V339.426C300.935 342.723 306.311 345.801 312.059 349.098V316.367Z" fill="#363A3D"/>
<path fill-rule="evenodd" clip-rule="evenodd" d="M253.201 420.194L253.171 420.211L164.785 368.36L164.755 364.411L253.171 416.267L253.201 420.194Z" fill="#B32D22"/>
<path fill-rule="evenodd" clip-rule="evenodd" d="M305.946 385.619L253.171 416.267L164.755 364.411L216.325 334.055L301.69 383.257L305.946 385.619Z" fill="#D0541B"/>
<path fill-rule="evenodd" clip-rule="evenodd" d="M305.947 389.568L253.202 420.194L253.172 416.267L305.947 385.619V389.568Z" fill="#982724"/>
<path fill-rule="evenodd" clip-rule="evenodd" d="M253.201 411.342L253.171 411.359L174.116 365.243L174.091 361.295L261.071 360.017L253.201 411.342Z" fill="#B32D22"/>
<path fill-rule="evenodd" clip-rule="evenodd" d="M301.694 379.244L253.171 407.415L174.091 361.295L222.129 333.056L297.468 376.827L301.694 379.244Z" fill="#D0541B"/>
<path fill-rule="evenodd" clip-rule="evenodd" d="M301.69 383.257L253.202 411.341L253.223 407.385L301.694 379.244L301.69 383.257Z" fill="#982724"/>
<path fill-rule="evenodd" clip-rule="evenodd" d="M253.107 402.497L253.077 402.515L183.469 362.174L183.439 358.225L253.133 398.536L253.107 402.497Z" fill="#B32D22"/>
<path fill-rule="evenodd" clip-rule="evenodd" d="M297.468 372.874L253.077 398.566L183.439 358.225L226.938 332.606L297.468 372.874Z" fill="#D0541B"/>
<path fill-rule="evenodd" clip-rule="evenodd" d="M297.468 376.827L253.107 402.497L253.133 398.536L297.468 372.874V376.827Z" fill="#982724"/>
<path fill-rule="evenodd" clip-rule="evenodd" d="M428.801 355.344C428.801 343.538 428.801 300.582 428.801 288.775C435.685 284.852 442.573 280.93 449.461 277.012C449.461 288.792 449.461 331.723 449.461 343.503C442.573 347.456 435.685 351.4 428.801 355.344Z" fill="#B2B2B2"/>
<path fill-rule="evenodd" clip-rule="evenodd" d="M428.801 355.344V331.633C435.689 335.551 438.87 337.36 445.754 341.287L449.461 343.503C442.573 347.452 435.685 351.396 428.801 355.344Z" fill="#CCCCCC"/>
<path fill-rule="evenodd" clip-rule="evenodd" d="M428.801 288.779C434.553 285.5 439.997 282.4 445.754 279.125V341.287C439.997 344.584 434.553 347.705 428.801 351.001V288.779Z" fill="#363A3D"/>
<path fill-rule="evenodd" clip-rule="evenodd" d="M342.57 306.425C342.57 294.618 342.57 262.427 342.57 250.621C335.686 246.698 328.798 242.775 321.909 238.857C321.909 250.638 321.909 282.803 321.909 294.584C328.798 298.532 335.686 302.477 342.57 306.425Z" fill="#7F7F7F"/>
<path fill-rule="evenodd" clip-rule="evenodd" d="M342.57 306.425V282.713L325.758 292.372L321.909 294.58C328.798 298.532 335.686 302.477 342.57 306.425Z" fill="#E5E5E5"/>
<path fill-rule="evenodd" clip-rule="evenodd" d="M342.57 250.59C336.818 247.311 331.468 244.267 325.711 240.992V292.402C331.468 295.699 336.822 298.764 342.57 302.065V250.59Z" fill="#363A3D"/>
<path fill-rule="evenodd" clip-rule="evenodd" d="M264.042 353.201C264.042 341.394 264.042 310.519 264.042 298.712C257.158 294.79 250.27 290.867 243.381 286.949C243.381 298.73 243.381 329.892 243.381 341.673C250.265 345.617 257.158 349.252 264.042 353.201Z" fill="#999999"/>
<path fill-rule="evenodd" clip-rule="evenodd" d="M281.261 364.596L281.196 349.904C275.384 353.214 261.414 331.324 252.991 336.143L242.464 342.162L281.261 364.596Z" fill="#D0541B"/>
<path fill-rule="evenodd" clip-rule="evenodd" d="M281.196 308.564C269.666 301.996 258.247 295.424 246.712 288.861V339.727C258.208 346.316 269.7 352.901 281.196 359.49V308.564Z" fill="#363A3D"/>
<path fill-rule="evenodd" clip-rule="evenodd" d="M206.771 311.196C206.771 299.39 206.771 267.198 206.771 255.392C199.887 251.469 192.998 247.547 186.11 243.628C186.11 255.409 186.11 287.575 186.11 299.356C192.998 303.304 199.887 307.248 206.771 311.196Z" fill="#7F7F7F"/>
<path fill-rule="evenodd" clip-rule="evenodd" d="M206.771 311.196V287.485L189.921 297.165L186.11 299.356C192.998 303.304 199.887 307.248 206.771 311.196Z" fill="#E5E5E5"/>
<path fill-rule="evenodd" clip-rule="evenodd" d="M206.771 255.392C201.018 252.112 195.656 249.06 189.899 245.789V297.169C195.652 300.466 201.018 303.535 206.771 306.836V255.392Z" fill="#363A3D"/>
<path fill-rule="evenodd" clip-rule="evenodd" d="M466.419 267.216L356.218 330.848L172.29 224.62L282.551 161L466.419 267.216Z" fill="#E5E5E5"/>
<path fill-rule="evenodd" clip-rule="evenodd" d="M428.801 327.11L445.754 336.901V341.287C439.997 344.584 434.553 347.705 428.801 351.001V327.11Z" fill="#666666"/>
<path fill-rule="evenodd" clip-rule="evenodd" d="M445.754 285.191L428.801 295.043V288.942L445.754 279.129V285.191Z" fill="#7F7F7F"/>
<path fill-rule="evenodd" clip-rule="evenodd" d="M189.899 293.457L206.771 283.721V306.828C201.018 303.531 195.656 300.457 189.899 297.161V293.457Z" fill="#666666"/>
<path fill-rule="evenodd" clip-rule="evenodd" d="M356.201 353.749L378.983 340.605L398.47 351.863V368.986C392.717 372.282 361.949 389.709 356.201 393.006V353.749Z" fill="#666666"/>
<path fill-rule="evenodd" clip-rule="evenodd" d="M324.708 371.922L356.201 353.749L356.205 393.006C350.453 389.709 330.465 378.421 324.708 375.125V371.922Z" fill="#666666"/>
<path fill-rule="evenodd" clip-rule="evenodd" d="M246.712 329.575L281.196 309.679V359.494C269.704 352.901 258.208 346.316 246.712 339.731V329.575Z" fill="#7F7F7F"/>
<path fill-rule="evenodd" clip-rule="evenodd" d="M250.484 341.896L281.196 342.136V359.49C270.96 353.621 260.724 347.76 250.484 341.896Z" fill="#E5E5E5"/>
</svg>
