<svg width="600" height="500" viewBox="0 0 600 500" fill="none" xmlns="http://www.w3.org/2000/svg">
<path fill-rule="evenodd" clip-rule="evenodd" d="M545.495 356.054L319.813 486.439L54.0051 333.143L279.743 202.766L545.495 356.054Z" fill="#D9C593"/>
<path fill-rule="evenodd" clip-rule="evenodd" d="M54 333.138L319.816 486.439L319.803 499.523L54.0429 346.222L54 333.138Z" fill="#B89F61"/>
<path fill-rule="evenodd" clip-rule="evenodd" d="M545.494 356.054L319.816 486.439L319.803 499.522L545.348 369.42L545.494 356.054Z" fill="#A68C49"/>
<path fill-rule="evenodd" clip-rule="evenodd" d="M354.828 417.564L269.279 263.886L339.752 237.377L545.494 356.054L439.798 417.118L354.828 417.564Z" fill="#B89F61"/>
<path fill-rule="evenodd" clip-rule="evenodd" d="M278.782 411.602L241.88 389.796L303.965 352.911L340.785 374.781L278.782 411.602Z" fill="#B89F61"/>
<path fill-rule="evenodd" clip-rule="evenodd" d="M354.755 417.538L174.938 314.004V156.189L354.755 259.822V417.538Z" fill="#B32D22"/>
<path fill-rule="evenodd" clip-rule="evenodd" d="M462.525 355.669V198.188C415.816 224.996 401.567 232.606 354.759 259.586V417.649C401.272 391.222 416.231 382.336 462.525 355.669Z" fill="#7E2926"/>
<path fill-rule="evenodd" clip-rule="evenodd" d="M354.755 410.553L174.938 307.019V298.561L354.755 402.198V410.553Z" fill="#6E2A26"/>
<path fill-rule="evenodd" clip-rule="evenodd" d="M262.056 348.23H311.205V392.464L262.056 364.165V348.23Z" fill="#6E2A26"/>
<path fill-rule="evenodd" clip-rule="evenodd" d="M355.625 409.65L171.458 303.61V141.976L355.629 248.118L355.625 409.65Z" fill="#CCCCCC"/>
<path fill-rule="evenodd" clip-rule="evenodd" d="M171.458 164.048V141.62L355.694 247.899L355.625 267.423L171.458 164.048Z" fill="#666666"/>
<path fill-rule="evenodd" clip-rule="evenodd" d="M466.002 346.17V184.993C418.165 212.453 403.569 220.247 355.625 247.878V409.65C403.269 382.58 418.593 373.48 466.002 346.17Z" fill="#7F7F7F"/>
<path fill-rule="evenodd" clip-rule="evenodd" d="M304.668 296.287L312.207 384.64L230.443 340.427L219.131 245.599L304.668 296.287Z" fill="#666666"/>
<path fill-rule="evenodd" clip-rule="evenodd" d="M205.989 310.681C205.989 298.87 205.989 266.669 205.989 254.858C199.096 250.936 192.195 247.008 185.298 243.09C185.298 254.875 185.298 287.05 185.298 298.835C192.195 302.788 199.092 306.732 205.989 310.681Z" fill="#7F7F7F"/>
<path fill-rule="evenodd" clip-rule="evenodd" d="M205.989 310.681V286.96C199.092 290.883 192.191 294.806 185.298 298.728V298.831C192.195 302.788 199.092 306.732 205.989 310.681Z" fill="#363A3D"/>
<path fill-rule="evenodd" clip-rule="evenodd" d="M205.989 308.505V254.858C199.744 251.304 193.49 247.745 187.24 244.191V297.773C193.49 301.353 199.74 304.929 205.989 308.505Z" fill="white"/>
<path fill-rule="evenodd" clip-rule="evenodd" d="M205.989 255.372C200.228 252.092 194.467 248.816 188.706 245.54V296.424C194.467 299.722 200.232 303.019 205.989 306.321V255.372Z" fill="#00A1B3"/>
<path fill-rule="evenodd" clip-rule="evenodd" d="M199.157 250.97V304.595L197.811 303.825V250.208L199.157 250.97Z" fill="white"/>
<path fill-rule="evenodd" clip-rule="evenodd" d="M205.869 272.853C200.108 269.573 194.347 266.297 188.586 263.021V264.468C194.347 267.766 200.112 271.063 205.869 274.365V272.853Z" fill="white"/>
<path fill-rule="evenodd" clip-rule="evenodd" d="M205.869 289.213C200.108 285.936 194.347 282.656 188.586 279.38V280.827C194.347 284.125 200.112 287.422 205.869 290.724V289.213Z" fill="white"/>
<path fill-rule="evenodd" clip-rule="evenodd" d="M355.025 396.635C355.025 384.82 355.025 352.624 355.025 340.808C348.132 336.89 327.583 325.203 320.686 321.284C320.686 333.07 320.686 365.244 320.686 377.03C327.583 380.978 348.132 392.678 355.025 396.635Z" fill="#7F7F7F"/>
<path fill-rule="evenodd" clip-rule="evenodd" d="M356.229 396.635C356.229 384.82 356.229 352.624 356.229 340.808C363.122 336.89 394.465 319.062 401.362 315.147C401.362 326.933 401.362 359.107 401.362 370.893C394.465 374.841 363.122 392.678 356.229 396.635Z" fill="#B2B2B2"/>
<path fill-rule="evenodd" clip-rule="evenodd" d="M355.629 397.012V373.291C350.13 376.417 331.72 371.133 323.708 375.415L320.686 377.03L355.629 397.012Z" fill="#E5E5E5"/>
<path fill-rule="evenodd" clip-rule="evenodd" d="M355.629 397.012V373.291C361.129 376.417 390.328 365 398.344 369.274L401.366 370.889L355.629 397.012Z" fill="#E5E5E5"/>
<path fill-rule="evenodd" clip-rule="evenodd" d="M355.629 341.151C349.868 337.875 329.855 326.599 324.09 323.323L324.094 374.61C329.855 377.908 349.873 389.201 355.634 392.498L355.629 341.151Z" fill="#363A3D"/>
<path fill-rule="evenodd" clip-rule="evenodd" d="M355.629 341.151C361.39 337.875 392.197 320.462 397.958 317.186V368.473C392.197 371.771 361.386 389.205 355.629 392.502V341.151Z" fill="#363A3D"/>
<path fill-rule="evenodd" clip-rule="evenodd" d="M311.423 352.945C311.423 341.134 311.423 327.644 311.423 315.833C304.531 311.91 297.634 307.983 290.732 304.064C290.732 315.85 290.732 329.314 290.732 341.1C297.629 345.052 304.531 348.996 311.423 352.945Z" fill="#999999"/>
<path fill-rule="evenodd" clip-rule="evenodd" d="M311.423 352.945V329.228C304.526 333.151 297.625 337.074 290.732 340.997V341.1C297.629 345.052 304.531 348.997 311.423 352.945Z" fill="#E5E5E5"/>
<path fill-rule="evenodd" clip-rule="evenodd" d="M311.423 315.837C305.666 312.561 299.901 309.28 294.14 306.004V338.688C299.901 341.986 305.666 345.283 311.423 348.585V315.837Z" fill="#363A3D"/>
<path fill-rule="evenodd" clip-rule="evenodd" d="M252.484 419.701L252.45 419.722L163.939 367.848L163.913 363.9L252.454 415.769L252.484 419.701Z" fill="#B32D22"/>
<path fill-rule="evenodd" clip-rule="evenodd" d="M305.062 385.231L252.454 415.769L163.913 363.899L215.552 333.532L305.062 385.231Z" fill="#D0541B"/>
<path fill-rule="evenodd" clip-rule="evenodd" d="M305.302 389.064L252.484 419.701L252.454 415.769L305.302 385.115V389.064Z" fill="#982724"/>
<path fill-rule="evenodd" clip-rule="evenodd" d="M273.917 403.316L259.326 394.901L290.908 376.674L305.302 385.115L273.917 403.316Z" fill="#7E2926"/>
<path fill-rule="evenodd" clip-rule="evenodd" d="M252.484 410.844L252.45 410.866L173.288 364.73L173.258 360.782L260.367 359.501L252.484 410.844Z" fill="#B32D22"/>
<path fill-rule="evenodd" clip-rule="evenodd" d="M300.994 378.816L252.454 406.917L173.258 360.782L221.712 332.325L300.994 378.816Z" fill="#D0541B"/>
<path fill-rule="evenodd" clip-rule="evenodd" d="M301.161 382.683L252.484 410.844L252.506 406.887L301.166 378.67L301.161 382.683Z" fill="#982724"/>
<path fill-rule="evenodd" clip-rule="evenodd" d="M268.944 397.367L254.353 388.952L286.227 370.593L301.166 378.67L268.944 397.367Z" fill="#7E2926"/>
<path fill-rule="evenodd" clip-rule="evenodd" d="M252.39 401.997L252.36 402.018L182.649 361.66L182.624 357.707L252.412 398.04L252.39 401.997Z" fill="#B32D22"/>
<path fill-rule="evenodd" clip-rule="evenodd" d="M296.429 372.585L252.36 398.065L182.624 357.707L226.183 332.085L296.429 372.585Z" fill="#D0541B"/>
<path fill-rule="evenodd" clip-rule="evenodd" d="M264.607 390.986L197.828 352.465L229.693 334.106L296.811 372.366L264.607 390.986Z" fill="#7E2926"/>
<path fill-rule="evenodd" clip-rule="evenodd" d="M296.811 376.315L252.39 401.997L252.412 398.04L296.811 372.366V376.315Z" fill="#982724"/>
<path fill-rule="evenodd" clip-rule="evenodd" d="M428.328 354.829C428.328 343.018 428.328 224.979 428.328 213.168C435.22 209.245 442.122 205.318 449.019 201.4C449.019 213.185 449.019 331.203 449.019 342.988C442.122 346.937 435.225 350.881 428.328 354.829Z" fill="#B2B2B2"/>
<path fill-rule="evenodd" clip-rule="evenodd" d="M428.328 354.829V331.108C435.225 335.031 438.41 336.838 445.307 340.765L449.023 342.984C442.122 346.937 435.225 350.881 428.328 354.829Z" fill="#CCCCCC"/>
<path fill-rule="evenodd" clip-rule="evenodd" d="M428.328 213.678C434.089 210.402 439.541 207.297 445.307 204.021V340.77C439.546 344.067 434.089 347.189 428.328 350.487V213.678Z" fill="#363A3D"/>
<path fill-rule="evenodd" clip-rule="evenodd" d="M205.989 227.596C205.989 215.785 205.989 183.584 205.989 171.773C199.096 167.85 192.195 163.923 185.298 160.005C185.298 171.79 185.298 203.965 185.298 215.755C192.195 219.699 199.092 223.643 205.989 227.596Z" fill="#7F7F7F"/>
<path fill-rule="evenodd" clip-rule="evenodd" d="M205.989 227.596V203.875L189.113 213.562L185.298 215.75C192.195 219.699 199.092 223.643 205.989 227.596Z" fill="#E5E5E5"/>
<path fill-rule="evenodd" clip-rule="evenodd" d="M205.989 171.769C200.228 168.488 194.857 165.435 189.096 162.159V213.558C194.857 216.855 200.232 219.926 205.989 223.228V171.769Z" fill="#363A3D"/>
<path fill-rule="evenodd" clip-rule="evenodd" d="M341.977 305.893C341.977 294.082 341.977 261.882 341.977 250.07C335.084 246.148 328.188 242.221 321.286 238.302C321.286 250.088 321.286 282.262 321.286 294.048C328.183 297.996 335.08 301.94 341.977 305.893Z" fill="#7F7F7F"/>
<path fill-rule="evenodd" clip-rule="evenodd" d="M341.977 305.893V282.172L325.144 291.838L321.291 294.048C328.183 297.996 335.08 301.94 341.977 305.893Z" fill="#E5E5E5"/>
<path fill-rule="evenodd" clip-rule="evenodd" d="M341.977 250.036C336.22 246.756 330.858 243.711 325.093 240.435V291.863C330.854 295.161 336.216 298.227 341.977 301.529V250.036Z" fill="#363A3D"/>
<path fill-rule="evenodd" clip-rule="evenodd" d="M284.723 272.703C284.723 260.888 284.723 228.692 284.723 216.877C277.83 212.958 246.488 195.13 239.591 191.216C239.591 203.001 239.591 235.176 239.591 246.961C246.488 250.91 277.83 268.746 284.723 272.703Z" fill="#7F7F7F"/>
<path fill-rule="evenodd" clip-rule="evenodd" d="M284.723 272.704V248.983C279.223 252.109 251.22 240.195 243.371 244.76L239.591 246.957L284.723 272.704Z" fill="#E5E5E5"/>
<path fill-rule="evenodd" clip-rule="evenodd" d="M284.727 216.761C278.966 213.481 249.137 196.633 243.371 193.357V244.76C249.132 248.058 278.966 264.926 284.727 268.224V216.761Z" fill="#363A3D"/>
<path fill-rule="evenodd" clip-rule="evenodd" d="M191.432 362.807L196.705 353.797L218.664 353.99L222.869 362.773L191.432 362.807Z" fill="#7E2926"/>
<path fill-rule="evenodd" clip-rule="evenodd" d="M252.403 398.031L255.836 389.008L267.847 389.111L252.424 398.031H252.403Z" fill="#7E2926"/>
<path fill-rule="evenodd" clip-rule="evenodd" d="M271.67 390.845L273.308 394.841L265.022 399.637L256.449 399.646L271.67 390.845Z" fill="#7E2926"/>
<path fill-rule="evenodd" clip-rule="evenodd" d="M280.226 394.776L281.86 398.772L273.574 403.568L265.001 403.577L280.226 394.776Z" fill="#7E2926"/>
<path fill-rule="evenodd" clip-rule="evenodd" d="M263.338 352.684C263.338 340.872 263.338 308.985 263.338 297.174C256.445 293.247 249.544 289.324 242.647 285.405C242.647 297.191 242.647 329.365 242.647 341.155C249.544 345.099 256.441 348.731 263.338 352.684Z" fill="#999999"/>
<path fill-rule="evenodd" clip-rule="evenodd" d="M280.582 364.084L280.518 349.386C274.697 352.697 260.706 330.8 252.27 335.618L241.73 341.639L280.582 364.084Z" fill="#7E2926"/>
<path fill-rule="evenodd" clip-rule="evenodd" d="M263.269 298.154C257.508 294.874 251.747 291.598 245.982 288.322V339.207C251.743 342.504 257.508 345.802 263.269 349.103V298.154Z" fill="#363A3D"/>
<path fill-rule="evenodd" clip-rule="evenodd" d="M280.518 308.03C274.757 304.749 268.996 301.473 263.23 298.197V349.082C268.991 352.38 274.757 355.677 280.518 358.979V308.03Z" fill="#363A3D"/>
<path fill-rule="evenodd" clip-rule="evenodd" d="M205.989 310.664C205.989 298.852 205.989 266.652 205.989 254.841C199.096 250.918 192.195 246.991 185.298 243.073C185.298 254.858 185.298 287.033 185.298 298.818C192.195 302.767 199.092 306.711 205.989 310.664Z" fill="#7F7F7F"/>
<path fill-rule="evenodd" clip-rule="evenodd" d="M205.989 310.664V286.943L189.113 296.626L185.298 298.814C192.195 302.767 199.092 306.711 205.989 310.664Z" fill="#E5E5E5"/>
<path fill-rule="evenodd" clip-rule="evenodd" d="M205.989 254.841C200.228 251.561 194.857 248.507 189.096 245.231V296.63C194.857 299.927 200.232 302.998 205.989 306.3V254.841Z" fill="#363A3D"/>
<path fill-rule="evenodd" clip-rule="evenodd" d="M200.22 357.75L191.432 362.807V277.41L200.22 281.448V357.75Z" fill="#999999"/>
<path fill-rule="evenodd" clip-rule="evenodd" d="M252.377 398.061L252.373 398.065L243.564 392.978V320.608L251.799 317.417H252.943L252.429 316.569L252.377 398.061Z" fill="#E5E5E5"/>
<path fill-rule="evenodd" clip-rule="evenodd" d="M191.432 362.807L182.619 357.878V285.641L190.854 282.45H191.998L191.484 281.603L191.432 362.807Z" fill="#E5E5E5"/>
<path fill-rule="evenodd" clip-rule="evenodd" d="M261.122 393.021L252.377 398.061V312.381L261.169 316.415L261.122 393.021Z" fill="#999999"/>
<path fill-rule="evenodd" clip-rule="evenodd" d="M182.619 302.394V285.641L190.854 282.45H191.998L191.484 281.603L191.467 307.495L182.619 302.394Z" fill="#666666"/>
<path fill-rule="evenodd" clip-rule="evenodd" d="M243.564 337.545V320.398L251.799 317.207H252.943L252.429 316.359L252.412 342.65L243.564 337.545Z" fill="#666666"/>
<path fill-rule="evenodd" clip-rule="evenodd" d="M361.339 258.897L157.801 141.573V133.745L361.339 250.828V258.897Z" fill="#905E15"/>
<path fill-rule="evenodd" clip-rule="evenodd" d="M487.378 186.407V179.208L361.339 250.828V258.897L487.378 186.407Z" fill="#805312"/>
<path fill-rule="evenodd" clip-rule="evenodd" d="M362.291 122.46L361.369 251.227L157.754 133.762L290.171 80.8213L362.291 122.46Z" fill="#BF883B"/>
<path fill-rule="evenodd" clip-rule="evenodd" d="M362.29 122.46L361.369 251.227L487.524 179.122L362.29 122.46Z" fill="#905E15"/>
<path fill-rule="evenodd" clip-rule="evenodd" d="M290.244 81.0483L283.197 61.3316L487.524 179.122L362.291 122.46L290.244 81.0483Z" fill="#805312"/>
<path fill-rule="evenodd" clip-rule="evenodd" d="M283.197 61.3359L157.754 133.762L290.244 81.044L283.197 61.3359Z" fill="#905E15"/>
<path fill-rule="evenodd" clip-rule="evenodd" d="M363.379 62.9033L342.633 74.8986L331.942 68.6975L352.239 56.5737L363.379 62.9033Z" fill="#D0541B"/>
<path fill-rule="evenodd" clip-rule="evenodd" d="M365.454 111.283L342.003 106.743L342.024 75.8022L365.454 62.2523V111.283Z" fill="#982724"/>
<path fill-rule="evenodd" clip-rule="evenodd" d="M366.997 59.7856L341.476 74.5432L328.325 66.916L353.293 52L366.997 59.7856Z" fill="#E5E5E5"/>
<path fill-rule="evenodd" clip-rule="evenodd" d="M361.421 59.9997L342.286 71.0657L334.176 66.355L352.899 55.1733L361.421 59.9997Z" fill="#666666"/>
<path fill-rule="evenodd" clip-rule="evenodd" d="M352.946 64.8989V55.199L361.42 59.9997L352.946 64.8989Z" fill="#7F7F7F"/>
<path fill-rule="evenodd" clip-rule="evenodd" d="M342.56 123.574L291.302 197.892L291.187 161.782L342.56 123.574Z" fill="#7F7F7F"/>
<path fill-rule="evenodd" clip-rule="evenodd" d="M250.474 136.708L291.187 160.382L291.303 197.892L250.406 173.932L250.474 136.708Z" fill="#CCCCCC"/>
<path fill-rule="evenodd" clip-rule="evenodd" d="M342.003 106.743L329.898 99.7414L329.868 68.8088L342.024 75.8022L342.003 106.743Z" fill="#B32D22"/>
<path fill-rule="evenodd" clip-rule="evenodd" d="M341.51 83.6949L328.355 76.0849L328.325 66.916L341.536 74.5132L341.51 83.6949Z" fill="#CCCCCC"/>
<path fill-rule="evenodd" clip-rule="evenodd" d="M291.208 167.906L250.461 144.404L250.474 136.849L250.577 136.768L291.187 160.382L291.208 167.906Z" fill="#666666"/>
<path fill-rule="evenodd" clip-rule="evenodd" d="M279.043 186.449C279.043 176.711 279.043 166.24 279.043 156.502C273.359 153.264 267.671 150.031 261.983 146.798C261.983 156.515 261.983 166.968 261.983 176.685C267.671 179.94 273.359 183.195 279.043 186.449Z" fill="#7F7F7F"/>
<path fill-rule="evenodd" clip-rule="evenodd" d="M279.043 186.449V166.891C273.355 170.124 267.667 173.362 261.983 176.595V176.681C267.671 179.94 273.359 183.195 279.043 186.449Z" fill="#E5E5E5"/>
<path fill-rule="evenodd" clip-rule="evenodd" d="M279.043 156.506C274.294 153.804 269.544 151.102 264.791 148.399V174.694C269.544 177.413 274.294 180.133 279.043 182.852V156.506Z" fill="#363A3D"/>
<path fill-rule="evenodd" clip-rule="evenodd" d="M350.194 115.501L292.546 162.18L245.232 134.892L302.885 88.2129L350.194 115.501Z" fill="#DBA55A"/>
<path fill-rule="evenodd" clip-rule="evenodd" d="M245.232 134.892L292.55 162.18L292.546 165.375L245.24 138.087L245.232 134.892Z" fill="#905E15"/>
<path fill-rule="evenodd" clip-rule="evenodd" d="M350.194 115.501L292.55 162.18L292.546 165.375L345.736 122.315L350.194 115.501Z" fill="#805312"/>
<path fill-rule="evenodd" clip-rule="evenodd" d="M366.997 68.9587L341.51 83.6948L341.535 74.5131L366.997 59.7856V68.9587Z" fill="#7F7F7F"/>
<path fill-rule="evenodd" clip-rule="evenodd" d="M304.784 290.343L248.177 328.899L162.413 279.436L219.033 240.88L304.784 290.343Z" fill="#BF883B"/>
<path fill-rule="evenodd" clip-rule="evenodd" d="M162.413 279.436L248.177 328.899V334.684L162.426 285.221L162.413 279.436Z" fill="#905E15"/>
<path fill-rule="evenodd" clip-rule="evenodd" d="M304.784 290.343L248.177 328.899V334.684L304.745 296.197L304.784 290.343Z" fill="#805312"/>
</svg>
