<svg width="600" height="501" viewBox="0 0 600 501" fill="none" xmlns="http://www.w3.org/2000/svg">
<g clip-path="url(#clip0)">
<path fill-rule="evenodd" clip-rule="evenodd" d="M546.836 356.553L320.537 487.298L54.0049 333.581L280.36 202.849L546.836 356.553Z" fill="#82B23A"/>
<path fill-rule="evenodd" clip-rule="evenodd" d="M54 333.577L320.541 487.298L320.528 500.415L54.0429 346.699L54 333.577Z" fill="#6A8D2E"/>
<path fill-rule="evenodd" clip-rule="evenodd" d="M546.835 356.552L320.54 487.298L320.528 500.415L546.69 369.957L546.835 356.552Z" fill="#5F8025"/>
<path fill-rule="evenodd" clip-rule="evenodd" d="M355.647 418.234L269.866 264.136L340.533 237.554L546.835 356.553L440.853 417.784L355.647 418.234Z" fill="#547325"/>
<path fill-rule="evenodd" clip-rule="evenodd" d="M490.752 360.895L364.743 432.212C361.159 434.242 357.078 434.229 353.508 432.169L319.37 412.508C317.682 411.531 315.748 411.527 314.047 412.486L251.85 447.689L115.841 369.242L172.426 337.187C174.145 336.215 175.135 334.519 175.144 332.545C175.153 330.571 174.171 328.87 172.461 327.881L153.682 317.068C151.967 316.083 150.99 314.383 150.998 312.408C151.007 310.434 151.997 308.743 153.716 307.766L287.076 232.223L490.825 351.611C492.522 352.608 493.486 354.304 493.474 356.274C493.456 358.24 492.466 359.923 490.752 360.895Z" fill="#D9C593"/>
<path fill-rule="evenodd" clip-rule="evenodd" d="M490.752 360.895L389.758 418.054L355.651 418.234L269.866 264.136L313.519 247.717L490.824 351.611C492.522 352.608 493.486 354.304 493.473 356.274C493.456 358.24 492.466 359.923 490.752 360.895Z" fill="#B89F61"/>
<path fill-rule="evenodd" clip-rule="evenodd" d="M279.395 412.255L242.39 390.389L304.646 353.401L341.566 375.336L279.395 412.255Z" fill="#B89F61"/>
<path fill-rule="evenodd" clip-rule="evenodd" d="M355.574 418.204L175.268 314.387V156.144L355.578 260.059L355.574 418.204Z" fill="#B32D22"/>
<path fill-rule="evenodd" clip-rule="evenodd" d="M463.64 356.171V198.258C416.806 225.139 402.515 232.771 355.578 259.828V418.319C402.219 391.819 417.222 382.907 463.64 356.171Z" fill="#7E2926"/>
<path fill-rule="evenodd" clip-rule="evenodd" d="M355.574 411.202L175.268 307.385V298.906L355.574 402.825V411.202Z" fill="#6E2A26"/>
<path fill-rule="evenodd" clip-rule="evenodd" d="M262.622 348.711H311.908V393.061L262.622 364.685V348.711Z" fill="#6E2A26"/>
<path fill-rule="evenodd" clip-rule="evenodd" d="M356.448 410.294L171.779 303.968V141.892L356.453 248.325L356.448 410.294Z" fill="#CCCCCC"/>
<path fill-rule="evenodd" clip-rule="evenodd" d="M171.779 164.024V141.536L356.517 248.102L356.448 267.682L171.779 164.024Z" fill="#666666"/>
<path fill-rule="evenodd" clip-rule="evenodd" d="M467.129 346.643V185.029C419.159 212.562 404.525 220.377 356.453 248.085V410.298C404.225 383.155 419.588 374.029 467.129 346.643Z" fill="#7F7F7F"/>
<path fill-rule="evenodd" clip-rule="evenodd" d="M305.354 296.623L312.915 385.219L230.924 340.887L219.582 245.798L305.354 296.623Z" fill="#666666"/>
<path fill-rule="evenodd" clip-rule="evenodd" d="M206.401 311.059C206.401 299.214 206.401 266.928 206.401 255.083C199.487 251.147 192.573 247.211 185.654 243.28C185.654 255.095 185.654 287.36 185.654 299.18C192.573 303.141 199.491 307.098 206.401 311.059Z" fill="#7F7F7F"/>
<path fill-rule="evenodd" clip-rule="evenodd" d="M206.401 311.059V287.274C199.482 291.206 192.568 295.141 185.654 299.077V299.18C192.573 303.141 199.491 307.098 206.401 311.059Z" fill="#363A3D"/>
<path fill-rule="evenodd" clip-rule="evenodd" d="M206.401 308.88V255.083C200.138 251.515 193.867 247.952 187.6 244.389V298.118C193.871 301.702 200.138 305.291 206.401 308.88Z" fill="white"/>
<path fill-rule="evenodd" clip-rule="evenodd" d="M206.401 255.597C200.627 252.308 194.849 249.023 189.071 245.738V296.764C194.849 300.071 200.627 303.377 206.401 306.687V255.597Z" fill="#00A1B3"/>
<path fill-rule="evenodd" clip-rule="evenodd" d="M199.551 251.186V304.952L198.205 304.186V250.419L199.551 251.186Z" fill="white"/>
<path fill-rule="evenodd" clip-rule="evenodd" d="M206.281 273.129C200.507 269.84 194.729 266.555 188.951 263.271V264.723C194.729 268.029 200.507 271.335 206.281 274.645V273.129Z" fill="white"/>
<path fill-rule="evenodd" clip-rule="evenodd" d="M206.281 289.531C200.507 286.242 194.729 282.958 188.951 279.673V281.125C194.729 284.431 200.507 287.737 206.281 291.047V289.531Z" fill="white"/>
<path fill-rule="evenodd" clip-rule="evenodd" d="M355.848 397.245C355.848 385.395 355.848 353.114 355.848 341.264C348.934 337.332 328.333 325.616 321.415 321.688C321.415 333.504 321.415 365.768 321.415 377.588C328.329 381.545 348.934 393.279 355.848 397.245Z" fill="#7F7F7F"/>
<path fill-rule="evenodd" clip-rule="evenodd" d="M357.053 397.245C357.053 385.395 357.053 353.114 357.053 341.264C363.967 337.333 395.391 319.457 402.309 315.53C402.309 327.35 402.309 359.61 402.309 371.43C395.395 375.391 363.967 393.279 357.053 397.245Z" fill="#CCCCCC"/>
<path fill-rule="evenodd" clip-rule="evenodd" d="M356.453 397.626V373.841C350.94 376.976 332.479 371.678 324.441 375.969L321.411 377.588L356.453 397.626Z" fill="#363A3D"/>
<path fill-rule="evenodd" clip-rule="evenodd" d="M356.453 397.626V373.841C361.965 376.976 391.246 365.524 399.283 369.811L402.313 371.43L356.453 397.626Z" fill="#363A3D"/>
<path fill-rule="evenodd" clip-rule="evenodd" d="M355.848 395.061V341.264C349.586 337.697 329.628 326.357 323.361 322.793V376.522C329.628 380.111 349.586 391.472 355.848 395.061Z" fill="white"/>
<path fill-rule="evenodd" clip-rule="evenodd" d="M357.053 395.061V341.264C363.315 337.697 394.096 320.198 400.363 316.635V370.364C394.096 373.952 363.315 391.472 357.053 395.061Z" fill="#E5E5E5"/>
<path fill-rule="evenodd" clip-rule="evenodd" d="M355.848 341.671C350.074 338.382 330.605 327.427 324.827 324.142V375.168C330.605 378.475 350.074 389.451 355.848 392.761V341.671Z" fill="#00A1B3"/>
<path fill-rule="evenodd" clip-rule="evenodd" d="M357.053 341.671C362.827 338.382 393.119 321.269 398.897 317.984V369.01C393.119 372.316 362.827 389.451 357.053 392.757V341.671Z" fill="#006873"/>
<path fill-rule="evenodd" clip-rule="evenodd" d="M335.308 329.59V383.357L333.962 382.59V328.823L335.308 329.59Z" fill="white"/>
<path fill-rule="evenodd" clip-rule="evenodd" d="M377.594 329.59V383.357L378.939 382.59V328.823L377.594 329.59Z" fill="#E5E5E5"/>
<path fill-rule="evenodd" clip-rule="evenodd" d="M355.848 359.362C350.074 356.077 330.489 344.96 324.707 341.675V343.127C330.485 346.437 350.07 357.572 355.848 360.878V359.362Z" fill="white"/>
<path fill-rule="evenodd" clip-rule="evenodd" d="M357.053 359.362C362.827 356.077 393.903 338.356 399.682 335.071V336.523C393.903 339.833 362.827 357.572 357.053 360.878V359.362Z" fill="#E5E5E5"/>
<path fill-rule="evenodd" clip-rule="evenodd" d="M355.848 375.768C350.074 372.479 330.489 361.366 324.707 358.081V359.533C330.485 362.843 350.07 373.978 355.848 377.284V375.768Z" fill="white"/>
<path fill-rule="evenodd" clip-rule="evenodd" d="M357.053 375.768C362.827 372.479 393.903 354.762 399.682 351.478V352.929C393.903 356.235 362.827 373.978 357.053 377.284V375.768Z" fill="#E5E5E5"/>
<path fill-rule="evenodd" clip-rule="evenodd" d="M312.126 353.439C312.126 341.594 312.126 328.07 312.126 316.228C305.212 312.293 298.298 308.357 291.38 304.426C291.38 316.241 291.38 329.744 291.38 341.564C298.294 345.521 305.212 349.478 312.126 353.439Z" fill="#999999"/>
<path fill-rule="evenodd" clip-rule="evenodd" d="M312.126 353.439V329.654C305.208 333.585 298.294 337.521 291.38 341.457V341.559C298.294 345.521 305.212 349.478 312.126 353.439Z" fill="#363A3D"/>
<path fill-rule="evenodd" clip-rule="evenodd" d="M312.126 351.259V316.232C305.864 312.665 299.593 309.102 293.326 305.539V340.497C299.593 344.082 305.86 347.67 312.126 351.259Z" fill="#E5E5E5"/>
<path fill-rule="evenodd" clip-rule="evenodd" d="M312.126 317.021C306.352 313.732 300.574 310.447 294.796 307.162V339.14C300.574 342.45 306.352 345.752 312.126 349.062V317.021Z" fill="#00A1B3"/>
<path fill-rule="evenodd" clip-rule="evenodd" d="M253.025 420.379L252.995 420.396L164.239 368.381L164.209 364.424L252.995 416.435L253.025 420.379Z" fill="#B32D22"/>
<path fill-rule="evenodd" clip-rule="evenodd" d="M305.744 385.815L252.995 416.435L164.209 364.424L215.994 333.971L305.744 385.815Z" fill="#D0541B"/>
<path fill-rule="evenodd" clip-rule="evenodd" d="M305.988 389.656L253.025 420.375L252.995 416.435L305.988 385.695V389.656Z" fill="#982724"/>
<path fill-rule="evenodd" clip-rule="evenodd" d="M274.517 403.947L259.887 395.511L291.556 377.229L305.988 385.695L274.517 403.947Z" fill="#7E2926"/>
<path fill-rule="evenodd" clip-rule="evenodd" d="M253.025 411.497L252.995 411.514L173.609 365.254L173.584 361.293L260.929 360.013L253.025 411.497Z" fill="#B32D22"/>
<path fill-rule="evenodd" clip-rule="evenodd" d="M301.667 379.378L252.995 407.553L173.584 361.293L222.171 332.763L301.667 379.378Z" fill="#D0541B"/>
<path fill-rule="evenodd" clip-rule="evenodd" d="M301.835 383.258L253.025 411.497L253.046 407.527L301.839 379.233L301.835 383.258Z" fill="#982724"/>
<path fill-rule="evenodd" clip-rule="evenodd" d="M269.528 397.982L254.902 389.545L286.858 371.13L301.839 379.233L269.528 397.982Z" fill="#7E2926"/>
<path fill-rule="evenodd" clip-rule="evenodd" d="M252.93 402.624L252.9 402.641L183.001 362.175L182.975 358.214L252.952 398.654L252.93 402.624Z" fill="#B32D22"/>
<path fill-rule="evenodd" clip-rule="evenodd" d="M297.089 373.13L252.9 398.684L182.975 358.214L226.654 332.519L297.089 373.13Z" fill="#D0541B"/>
<path fill-rule="evenodd" clip-rule="evenodd" d="M265.181 391.583L198.222 352.955L230.174 334.549L297.475 372.912L265.181 391.583Z" fill="#7E2926"/>
<path fill-rule="evenodd" clip-rule="evenodd" d="M297.475 376.873L252.93 402.624L252.952 398.654L297.475 372.912V376.873Z" fill="#982724"/>
<path fill-rule="evenodd" clip-rule="evenodd" d="M429.353 355.328C429.353 343.487 429.353 225.122 429.353 213.277C436.267 209.341 443.185 205.405 450.099 201.474C450.099 213.294 450.099 331.628 450.099 343.448C443.181 347.414 436.262 351.366 429.353 355.328Z" fill="#B2B2B2"/>
<path fill-rule="evenodd" clip-rule="evenodd" d="M429.353 355.328V331.542C436.271 335.474 443.189 339.409 450.099 343.345V343.448C443.181 347.409 436.262 351.366 429.353 355.328Z" fill="#363A3D"/>
<path fill-rule="evenodd" clip-rule="evenodd" d="M429.353 353.143V213.277C435.619 209.709 441.886 206.146 448.153 202.583V342.382C441.882 345.97 435.615 349.559 429.353 353.143Z" fill="#D8E1E2"/>
<path fill-rule="evenodd" clip-rule="evenodd" d="M429.353 213.791C435.131 210.502 440.905 207.217 446.687 203.932V341.05C440.909 344.36 435.131 347.662 429.353 350.972V213.791Z" fill="#006873"/>
<path fill-rule="evenodd" clip-rule="evenodd" d="M436.202 209.38V347.636L437.548 346.865V208.613L436.202 209.38Z" fill="#D8E1E2"/>
<path fill-rule="evenodd" clip-rule="evenodd" d="M206.401 227.743C206.401 215.898 206.401 183.612 206.401 171.766C199.487 167.831 192.573 163.895 185.654 159.964C185.654 171.779 185.654 204.044 185.654 215.863C192.573 219.829 199.491 223.782 206.401 227.743Z" fill="#7F7F7F"/>
<path fill-rule="evenodd" clip-rule="evenodd" d="M206.401 227.743V203.958C199.482 207.889 192.568 211.825 185.654 215.761V215.868C192.573 219.829 199.491 223.782 206.401 227.743Z" fill="#363A3D"/>
<path fill-rule="evenodd" clip-rule="evenodd" d="M206.401 225.563V171.766C200.138 168.199 193.867 164.636 187.601 161.073V214.801C193.872 218.39 200.138 221.975 206.401 225.563Z" fill="white"/>
<path fill-rule="evenodd" clip-rule="evenodd" d="M206.401 172.28C200.627 168.991 194.849 165.707 189.071 162.422V213.444C194.849 216.75 200.627 220.056 206.401 223.366V172.28Z" fill="#00A1B3"/>
<path fill-rule="evenodd" clip-rule="evenodd" d="M342.762 306.254C342.762 294.409 342.762 262.123 342.762 250.278C335.848 246.342 328.933 242.406 322.015 238.475C322.015 250.291 322.015 282.555 322.015 294.375C328.933 298.336 335.848 302.293 342.762 306.254Z" fill="#7F7F7F"/>
<path fill-rule="evenodd" clip-rule="evenodd" d="M342.762 306.254V282.469C335.843 286.401 328.929 290.336 322.015 294.272V294.375C328.933 298.336 335.848 302.293 342.762 306.254Z" fill="#363A3D"/>
<path fill-rule="evenodd" clip-rule="evenodd" d="M342.762 304.075V250.278C336.495 246.71 330.228 243.147 323.961 239.584V293.313C330.228 296.901 336.495 300.486 342.762 304.075Z" fill="white"/>
<path fill-rule="evenodd" clip-rule="evenodd" d="M342.762 250.792C336.988 247.503 331.21 244.218 325.427 240.933V291.959C331.205 295.266 336.984 298.572 342.762 301.882V250.792Z" fill="#00A1B3"/>
<path fill-rule="evenodd" clip-rule="evenodd" d="M429.472 231.323C435.246 228.034 441.024 224.75 446.807 221.465V222.917C441.029 226.227 435.251 229.533 429.472 232.839V231.323Z" fill="#D8E1E2"/>
<path fill-rule="evenodd" clip-rule="evenodd" d="M429.472 248.406C435.251 245.117 441.024 241.833 446.807 238.548C446.807 239.032 446.807 239.516 446.807 240C441.029 243.31 435.251 246.616 429.472 249.922C429.472 249.417 429.472 248.912 429.472 248.406Z" fill="#D8E1E2"/>
<path fill-rule="evenodd" clip-rule="evenodd" d="M429.472 265.489C435.251 262.2 441.024 258.916 446.807 255.631C446.807 256.115 446.807 256.599 446.807 257.083C441.029 260.393 435.251 263.699 429.472 267.005C429.472 266.5 429.472 265.995 429.472 265.489Z" fill="#D8E1E2"/>
<path fill-rule="evenodd" clip-rule="evenodd" d="M429.472 282.576C435.251 279.287 441.024 276.003 446.807 272.718C446.807 273.202 446.807 273.686 446.807 274.17C441.029 277.48 435.251 280.786 429.472 284.092C429.472 283.587 429.472 283.082 429.472 282.576Z" fill="#D8E1E2"/>
<path fill-rule="evenodd" clip-rule="evenodd" d="M429.472 299.659C435.251 296.37 441.024 293.086 446.807 289.801C446.807 290.285 446.807 290.769 446.807 291.253C441.029 294.563 435.251 297.869 429.472 301.175C429.472 300.67 429.472 300.165 429.472 299.659Z" fill="#D8E1E2"/>
<path fill-rule="evenodd" clip-rule="evenodd" d="M429.472 316.742C435.251 313.457 441.024 310.168 446.807 306.884C446.807 307.368 446.807 307.852 446.807 308.336C441.029 311.642 435.251 314.952 429.472 318.258C429.472 317.753 429.472 317.247 429.472 316.742Z" fill="#D8E1E2"/>
<path fill-rule="evenodd" clip-rule="evenodd" d="M429.472 333.83C435.246 330.545 441.024 327.256 446.807 323.971V325.423C441.029 328.729 435.251 332.039 429.472 335.346V333.83Z" fill="#D8E1E2"/>
<path fill-rule="evenodd" clip-rule="evenodd" d="M345.852 335.448V389.219L344.506 388.449V334.682L345.852 335.448Z" fill="white"/>
<path fill-rule="evenodd" clip-rule="evenodd" d="M367.049 335.448V389.219L368.395 388.449V334.682L367.049 335.448Z" fill="#E5E5E5"/>
<path fill-rule="evenodd" clip-rule="evenodd" d="M356.453 341.602V395.374L355.107 394.603V340.836L356.453 341.602Z" fill="white"/>
<path fill-rule="evenodd" clip-rule="evenodd" d="M356.453 341.602V395.374L357.794 394.603V340.836L356.453 341.602Z" fill="#E5E5E5"/>
<path fill-rule="evenodd" clip-rule="evenodd" d="M388.245 323.941V377.276L389.591 376.509V323.179L388.245 323.941Z" fill="#E5E5E5"/>
<path fill-rule="evenodd" clip-rule="evenodd" d="M285.353 272.975C285.353 261.125 285.353 228.844 285.353 216.994C278.439 213.063 247.015 195.187 240.097 191.26C240.097 203.076 240.097 235.34 240.097 247.16C247.015 251.125 278.439 269.009 285.353 272.975Z" fill="#7F7F7F"/>
<path fill-rule="evenodd" clip-rule="evenodd" d="M285.353 272.975V249.19C279.841 252.325 251.16 241.254 243.127 245.541L240.097 247.16L285.353 272.975Z" fill="#363A3D"/>
<path fill-rule="evenodd" clip-rule="evenodd" d="M285.358 270.791V216.994C279.095 213.427 248.314 195.928 242.047 192.365V246.094C248.31 249.682 279.091 267.202 285.358 270.791Z" fill="white"/>
<path fill-rule="evenodd" clip-rule="evenodd" d="M285.357 217.401C279.583 214.112 249.291 196.999 243.513 193.714V244.74C249.291 248.047 279.583 265.181 285.357 268.487V217.401Z" fill="#00A1B3"/>
<path fill-rule="evenodd" clip-rule="evenodd" d="M191.805 363.327L197.095 354.295L219.114 354.484L223.328 363.289L191.805 363.327Z" fill="#7E2926"/>
<path fill-rule="evenodd" clip-rule="evenodd" d="M200.618 358.257L191.805 363.328V277.699L200.618 281.746V358.257Z" fill="#7F7F7F"/>
<path fill-rule="evenodd" clip-rule="evenodd" d="M252.943 398.645L256.385 389.601L268.43 389.703L252.965 398.645H252.943Z" fill="#7E2926"/>
<path fill-rule="evenodd" clip-rule="evenodd" d="M272.266 391.442L273.908 395.446L265.597 400.256L257.002 400.268L272.266 391.442Z" fill="#7E2926"/>
<path fill-rule="evenodd" clip-rule="evenodd" d="M280.839 395.382L282.481 399.386L274.17 404.2L265.58 404.208L280.839 395.382Z" fill="#7E2926"/>
<path fill-rule="evenodd" clip-rule="evenodd" d="M309.254 315.385L312.126 349.003V349.062C306.352 345.752 300.57 342.45 294.796 339.14V307.162L309.254 315.385Z" fill="#006873"/>
<path fill-rule="evenodd" clip-rule="evenodd" d="M305.276 313.119V347.337L303.926 346.561V312.353L305.276 313.119Z" fill="#E5E5E5"/>
<path fill-rule="evenodd" clip-rule="evenodd" d="M312.006 331.915C306.232 328.626 300.454 325.342 294.672 322.057V323.509C300.45 326.815 306.228 330.121 312.006 333.431V331.915V331.915Z" fill="#E5E5E5"/>
<path fill-rule="evenodd" clip-rule="evenodd" d="M342.762 256.449L325.427 246.719V240.933C331.205 244.218 336.984 247.507 342.762 250.792V256.449Z" fill="#006873"/>
<path fill-rule="evenodd" clip-rule="evenodd" d="M285.357 224.227L243.513 200.738V193.714C249.291 196.999 279.583 214.112 285.357 217.401V224.227Z" fill="#006873"/>
<path fill-rule="evenodd" clip-rule="evenodd" d="M206.401 179.907L189.071 170.178V162.422C194.849 165.707 200.627 168.996 206.401 172.28V179.907Z" fill="#006873"/>
<path fill-rule="evenodd" clip-rule="evenodd" d="M199.551 167.869V221.641L198.205 220.87V167.103L199.551 167.869Z" fill="white"/>
<path fill-rule="evenodd" clip-rule="evenodd" d="M206.281 189.813C200.507 186.528 194.729 183.239 188.951 179.955V181.406C194.729 184.712 200.507 188.019 206.281 191.329V189.813Z" fill="white"/>
<path fill-rule="evenodd" clip-rule="evenodd" d="M206.281 206.219C200.507 202.93 194.729 199.646 188.951 196.361V197.813C194.729 201.119 200.507 204.425 206.281 207.735V206.219Z" fill="white"/>
<path fill-rule="evenodd" clip-rule="evenodd" d="M264.817 205.32V259.091L263.471 258.32V204.553L264.817 205.32Z" fill="white"/>
<path fill-rule="evenodd" clip-rule="evenodd" d="M285.353 235.092C279.579 231.807 248.503 214.086 242.724 210.802V212.253C248.503 215.559 279.579 233.302 285.353 236.608V235.092Z" fill="white"/>
<path fill-rule="evenodd" clip-rule="evenodd" d="M285.353 251.498C279.579 248.209 248.503 230.492 242.724 227.208V228.66C248.503 231.97 279.579 249.708 285.353 253.014V251.498Z" fill="white"/>
<path fill-rule="evenodd" clip-rule="evenodd" d="M275.362 211.178V264.95L274.016 264.179V210.412L275.362 211.178Z" fill="white"/>
<path fill-rule="evenodd" clip-rule="evenodd" d="M254.165 199.671V253.01L252.819 252.239V198.909L254.165 199.671Z" fill="white"/>
<path fill-rule="evenodd" clip-rule="evenodd" d="M335.908 246.381V300.152L334.566 299.381V245.614L335.908 246.381Z" fill="white"/>
<path fill-rule="evenodd" clip-rule="evenodd" d="M342.642 268.324C336.868 265.039 331.09 261.751 325.307 258.466V259.918C331.085 263.228 336.863 266.534 342.642 269.84V268.324Z" fill="white"/>
<path fill-rule="evenodd" clip-rule="evenodd" d="M342.642 284.73C336.868 281.441 331.09 278.157 325.307 274.872V276.324C331.085 279.634 336.863 282.94 342.642 286.246V284.73Z" fill="white"/>
<path fill-rule="evenodd" clip-rule="evenodd" d="M263.908 353.173C263.908 341.328 263.908 309.355 263.908 297.509C256.994 293.574 250.075 289.638 243.161 285.707C243.161 297.527 243.161 329.791 243.161 341.606C250.075 345.572 256.994 349.212 263.908 353.173Z" fill="#999999"/>
<path fill-rule="evenodd" clip-rule="evenodd" d="M281.199 364.608L281.131 349.872C275.297 353.191 261.267 331.234 252.806 336.065L242.236 342.103L281.199 364.608Z" fill="#7E2926"/>
<path fill-rule="evenodd" clip-rule="evenodd" d="M263.839 298.499C258.065 295.21 252.287 291.925 246.505 288.64V339.666C252.283 342.973 258.061 346.279 263.839 349.589V298.499Z" fill="#0B573C"/>
<path fill-rule="evenodd" clip-rule="evenodd" d="M262.245 331.427C257.534 328.746 252.819 326.061 248.104 323.384V334.082C252.819 336.78 257.534 339.478 262.245 342.176V331.427Z" fill="#127351"/>
<path fill-rule="evenodd" clip-rule="evenodd" d="M262.245 331.427C257.757 328.875 253.269 326.322 248.781 323.77V333.662C253.269 336.232 257.757 338.801 262.245 341.371V331.427Z" fill="#05402B"/>
<path fill-rule="evenodd" clip-rule="evenodd" d="M281.135 308.4C275.361 305.111 269.583 301.826 263.801 298.537V349.563C269.579 352.869 275.357 356.175 281.135 359.486V308.4V308.4Z" fill="#0B573C"/>
<path fill-rule="evenodd" clip-rule="evenodd" d="M279.541 341.328C274.83 338.647 270.115 335.962 265.4 333.285V343.76C270.115 346.458 274.83 349.156 279.541 351.854V341.328Z" fill="#127351"/>
<path fill-rule="evenodd" clip-rule="evenodd" d="M279.541 341.328C275.053 338.776 270.565 336.223 266.073 333.671V343.452C270.56 346.022 275.053 348.591 279.541 351.161V341.328Z" fill="#05402B"/>
<path d="M264.114 298.653V349.739L263.784 349.55V298.464L264.114 298.653Z" fill="#05402B"/>
<path fill-rule="evenodd" clip-rule="evenodd" d="M262.245 318.348C257.534 315.667 252.819 312.982 248.104 310.306V321.003C252.819 323.701 257.534 326.399 262.245 329.097V318.348Z" fill="#127351"/>
<path fill-rule="evenodd" clip-rule="evenodd" d="M262.245 305.265C257.534 302.584 252.819 299.899 248.104 297.222V307.92C252.819 310.618 257.534 313.316 262.245 316.014V305.265Z" fill="#127351"/>
<path fill-rule="evenodd" clip-rule="evenodd" d="M262.245 318.348C257.757 315.796 253.269 313.243 248.781 310.691V320.583C253.269 323.153 257.757 325.722 262.245 328.292V318.348Z" fill="#05402B"/>
<path fill-rule="evenodd" clip-rule="evenodd" d="M262.245 305.265C257.757 302.713 253.269 300.16 248.781 297.608V307.501C253.269 310.07 257.757 312.64 262.245 315.209V305.265Z" fill="#05402B"/>
<path fill-rule="evenodd" clip-rule="evenodd" d="M279.541 328.249C274.83 325.568 270.115 322.888 265.4 320.207V330.682C270.115 333.38 274.83 336.078 279.541 338.776V328.249Z" fill="#127351"/>
<path fill-rule="evenodd" clip-rule="evenodd" d="M279.541 315.17C274.83 312.49 270.115 309.809 265.4 307.128V317.603C270.115 320.301 274.83 322.999 279.541 325.697V315.17Z" fill="#127351"/>
<path fill-rule="evenodd" clip-rule="evenodd" d="M279.541 328.249C275.053 325.697 270.565 323.144 266.073 320.592V330.373C270.56 332.943 275.053 335.512 279.541 338.082V328.249Z" fill="#05402B"/>
<path fill-rule="evenodd" clip-rule="evenodd" d="M279.541 315.171C275.053 312.618 270.565 310.066 266.073 307.513V317.295C270.56 319.864 275.053 322.434 279.541 325.003V315.171Z" fill="#05402B"/>
<path fill-rule="evenodd" clip-rule="evenodd" d="M264.825 330.96C265.159 331.14 265.434 331.654 265.434 332.108C265.434 332.562 265.159 332.789 264.825 332.613C264.491 332.437 264.216 331.919 264.216 331.465C264.216 331.011 264.491 330.784 264.825 330.96Z" fill="#E8A611"/>
<path fill-rule="evenodd" clip-rule="evenodd" d="M264.752 331.011C265.087 331.191 265.361 331.705 265.361 332.159C265.361 332.617 265.087 332.84 264.752 332.664C264.418 332.489 264.144 331.971 264.144 331.517C264.139 331.058 264.414 330.832 264.752 331.011Z" fill="#BA7823"/>
<path fill-rule="evenodd" clip-rule="evenodd" d="M264.594 331.517C264.739 331.594 264.859 331.821 264.859 332.018C264.859 332.215 264.739 332.313 264.594 332.236C264.448 332.159 264.328 331.936 264.328 331.735C264.328 331.538 264.448 331.44 264.594 331.517Z" fill="#934E26"/>
<path fill-rule="evenodd" clip-rule="evenodd" d="M263.848 332.99C264.302 332.99 264.675 332.617 264.675 332.163C264.675 331.709 264.302 331.337 263.848 331.337C263.393 331.337 263.021 331.709 263.021 332.163C263.021 332.617 263.393 332.99 263.848 332.99Z" fill="#E8A611"/>
<path fill-rule="evenodd" clip-rule="evenodd" d="M252.918 398.679H252.913L244.083 393.579L244.079 321.012L252.339 317.813H253.483L252.969 316.965L252.918 398.679Z" fill="#E5E5E5"/>
<path fill-rule="evenodd" clip-rule="evenodd" d="M191.805 363.327L182.971 358.385L182.967 285.951L191.227 282.752H192.371L191.857 281.9L191.805 363.327Z" fill="#E5E5E5"/>
<path fill-rule="evenodd" clip-rule="evenodd" d="M261.683 393.622L252.917 398.679V312.764L261.73 316.811L261.683 393.622Z" fill="#7F7F7F"/>
<path fill-rule="evenodd" clip-rule="evenodd" d="M182.967 302.747V285.951L191.227 282.752H192.371L191.857 281.9L191.844 307.865L182.967 302.747Z" fill="#666666"/>
<path fill-rule="evenodd" clip-rule="evenodd" d="M244.079 337.996V320.802L252.339 317.599H253.483L252.969 316.751L252.952 343.114L244.079 337.996Z" fill="#666666"/>
<path fill-rule="evenodd" clip-rule="evenodd" d="M305.388 290.752L248.631 329.418L162.636 279.818L219.406 241.156L305.388 290.752Z" fill="#0B573C"/>
<path fill-rule="evenodd" clip-rule="evenodd" d="M162.632 279.818L248.631 329.418L248.627 335.217L162.645 285.621L162.632 279.818Z" fill="#E5E5E5"/>
<path fill-rule="evenodd" clip-rule="evenodd" d="M305.388 290.752L248.631 329.419L248.627 335.217L305.354 296.627L305.388 290.752Z" fill="#B2B2B2"/>
<path fill-rule="evenodd" clip-rule="evenodd" d="M302.237 288.936L245.819 327.795L244.949 327.294L301.372 288.435L302.237 288.936Z" fill="#127351"/>
<path fill-rule="evenodd" clip-rule="evenodd" d="M303.112 289.437L246.685 328.296L245.819 327.795L302.242 288.936L303.112 289.437Z" fill="#033624"/>
<path fill-rule="evenodd" clip-rule="evenodd" d="M286.377 279.789L229.955 318.644L229.085 318.143L285.512 279.288L286.377 279.789Z" fill="#127351"/>
<path fill-rule="evenodd" clip-rule="evenodd" d="M287.248 280.29L230.829 319.149L229.955 318.644L286.373 279.784L287.248 280.29Z" fill="#033624"/>
<path fill-rule="evenodd" clip-rule="evenodd" d="M270.514 270.637L214.091 309.496L213.221 308.995L269.648 270.136L270.514 270.637Z" fill="#127351"/>
<path fill-rule="evenodd" clip-rule="evenodd" d="M271.384 271.138L214.961 309.997L214.086 309.496L270.513 270.637L271.384 271.138Z" fill="#033624"/>
<path fill-rule="evenodd" clip-rule="evenodd" d="M254.654 261.489L198.231 300.349L197.356 299.843L253.779 260.984L254.654 261.489Z" fill="#127351"/>
<path fill-rule="evenodd" clip-rule="evenodd" d="M255.519 261.986L199.097 300.85L198.227 300.344L254.649 261.485L255.519 261.986Z" fill="#033624"/>
<path fill-rule="evenodd" clip-rule="evenodd" d="M238.789 252.337L182.362 291.197L181.492 290.696L237.923 251.836L238.789 252.337Z" fill="#127351"/>
<path fill-rule="evenodd" clip-rule="evenodd" d="M239.659 252.838L183.232 291.698L182.362 291.193L238.789 252.337L239.659 252.838Z" fill="#033624"/>
<path fill-rule="evenodd" clip-rule="evenodd" d="M222.929 243.19L166.498 282.05L165.632 281.549L222.055 242.685L222.929 243.19Z" fill="#127351"/>
<path fill-rule="evenodd" clip-rule="evenodd" d="M223.791 243.687L167.368 282.546L166.494 282.045L222.921 243.186L223.791 243.687Z" fill="#033624"/>
<path fill-rule="evenodd" clip-rule="evenodd" d="M361.935 258.265L154.938 138.95V131.095L361.939 250.175L361.935 258.265Z" fill="#E5E5E5"/>
<path fill-rule="evenodd" clip-rule="evenodd" d="M488.321 185.578V178.362L361.939 250.175V258.265L488.321 185.578Z" fill="#B2B2B2"/>
<path fill-rule="evenodd" clip-rule="evenodd" d="M363.855 122.008L361.969 250.578L154.89 131.117L291.534 80.2578L363.855 122.008Z" fill="#0B573C"/>
<path fill-rule="evenodd" clip-rule="evenodd" d="M363.855 122.008L361.969 250.578L488.467 178.276L363.855 122.008Z" fill="#05402B"/>
<path fill-rule="evenodd" clip-rule="evenodd" d="M291.611 80.4847L280.677 58.4897L488.467 178.276L363.855 122.008L291.611 80.4847Z" fill="#033624"/>
<path fill-rule="evenodd" clip-rule="evenodd" d="M280.677 58.4897L154.89 131.117L291.611 80.4847L280.677 58.4897Z" fill="#05402B"/>
<path fill-rule="evenodd" clip-rule="evenodd" d="M364.944 62.2884L344.142 74.3223L333.421 68.1041L353.773 55.946L364.944 62.2884Z" fill="#D0541B"/>
<path fill-rule="evenodd" clip-rule="evenodd" d="M367.023 110.801L343.507 106.248L343.529 75.2216L367.023 61.6375V110.801Z" fill="#982724"/>
<path fill-rule="evenodd" clip-rule="evenodd" d="M368.575 59.1621L342.984 73.9625L329.791 66.3139L354.832 51.3594L368.575 59.1621Z" fill="#E5E5E5"/>
<path fill-rule="evenodd" clip-rule="evenodd" d="M362.981 59.3762L343.794 70.4722L335.663 65.7529L354.434 54.5413L362.981 59.3762Z" fill="#666666"/>
<path fill-rule="evenodd" clip-rule="evenodd" d="M354.481 64.2925L354.485 54.5669L362.981 59.3762L354.481 64.2925Z" fill="#7F7F7F"/>
<path d="M365.047 59.3377C364.794 59.3377 364.593 59.1364 364.593 58.8837V51.2052C364.593 50.9525 364.794 50.7512 365.047 50.7512C365.3 50.7512 365.501 50.9525 365.501 51.2052V58.8837C365.501 59.1321 365.3 59.3377 365.047 59.3377Z" fill="#1A1D1F"/>
<path d="M343.64 72.2239C343.387 72.2239 343.186 72.0226 343.186 71.7699V64.0914C343.186 63.8387 343.387 63.6375 343.64 63.6375C343.893 63.6375 344.095 63.8387 344.095 64.0914V71.7699C344.095 72.0226 343.893 72.2239 343.64 72.2239Z" fill="#1A1D1F"/>
<path d="M332.989 66.7892C332.736 66.7892 332.534 66.5879 332.534 66.3352V58.661C332.534 58.4083 332.736 58.207 332.989 58.207C333.241 58.207 333.443 58.4083 333.443 58.661V66.3352C333.443 66.5879 333.241 66.7892 332.989 66.7892Z" fill="#1A1D1F"/>
<path fill-rule="evenodd" clip-rule="evenodd" d="M343.195 49.3637L342.749 66.6822L370.692 50.5586L352.71 43.865L343.195 49.3637Z" fill="#05402B"/>
<path fill-rule="evenodd" clip-rule="evenodd" d="M343.195 49.3638L342.749 66.6823L326.1 57.1665L343.195 49.3638Z" fill="#0B573C"/>
<path fill-rule="evenodd" clip-rule="evenodd" d="M352.702 43.895L354.138 41L326.1 57.1665L343.194 49.3637L352.702 43.895Z" fill="#05402B"/>
<path fill-rule="evenodd" clip-rule="evenodd" d="M354.138 41L370.692 50.5586L352.702 43.895L354.138 41Z" fill="#033624"/>
<path d="M362.415 220.326L347.279 242.098L346.491 241.644L362.436 218.698L362.415 220.326Z" fill="#127351"/>
<path d="M362.389 221.957L348.072 242.556L347.284 242.102L362.415 220.33L362.389 221.957Z" fill="#033624"/>
<path fill-rule="evenodd" clip-rule="evenodd" d="M362.848 190.721L332.903 233.807L332.114 233.353L362.869 189.098L362.848 190.721Z" fill="#127351"/>
<path fill-rule="evenodd" clip-rule="evenodd" d="M362.822 192.348L333.692 234.261L332.903 233.807L362.848 190.721L362.822 192.348Z" fill="#033624"/>
<path fill-rule="evenodd" clip-rule="evenodd" d="M363.281 161.116L318.526 225.512L317.737 225.058L363.302 159.489L363.281 161.116Z" fill="#127351"/>
<path fill-rule="evenodd" clip-rule="evenodd" d="M363.255 162.743L319.319 225.97L318.53 225.516L363.281 161.12L363.255 162.743Z" fill="#033624"/>
<path fill-rule="evenodd" clip-rule="evenodd" d="M363.714 131.511L304.149 217.217L303.36 216.763L363.739 129.888L363.714 131.511Z" fill="#127351"/>
<path fill-rule="evenodd" clip-rule="evenodd" d="M363.688 133.134L304.938 217.675L304.149 217.221L363.714 131.511L363.688 133.134Z" fill="#033624"/>
<path fill-rule="evenodd" clip-rule="evenodd" d="M354.095 116.376L289.772 208.926L288.984 208.472L353.302 115.918L354.095 116.376Z" fill="#127351"/>
<path fill-rule="evenodd" clip-rule="evenodd" d="M354.879 116.83L290.561 209.38L289.772 208.926L354.09 116.376L354.879 116.83Z" fill="#033624"/>
<path fill-rule="evenodd" clip-rule="evenodd" d="M339.718 108.077L275.396 200.635L274.611 200.177L338.934 107.623L339.718 108.077Z" fill="#127351"/>
<path fill-rule="evenodd" clip-rule="evenodd" d="M340.507 108.531L276.184 201.084L275.396 200.631L339.718 108.077L340.507 108.531Z" fill="#033624"/>
<path fill-rule="evenodd" clip-rule="evenodd" d="M325.346 99.7817L261.019 192.34L260.23 191.886L324.557 99.3235L325.346 99.7817Z" fill="#127351"/>
<path fill-rule="evenodd" clip-rule="evenodd" d="M326.134 100.236L261.807 192.794L261.019 192.34L325.346 99.7773L326.134 100.236Z" fill="#033624"/>
<path fill-rule="evenodd" clip-rule="evenodd" d="M310.973 91.4823L246.642 184.044L245.853 183.591L310.184 91.0283L310.973 91.4823Z" fill="#127351"/>
<path fill-rule="evenodd" clip-rule="evenodd" d="M311.758 91.9363L247.426 184.498L246.638 184.045L310.969 91.478L311.758 91.9363Z" fill="#033624"/>
<path fill-rule="evenodd" clip-rule="evenodd" d="M296.601 83.1827L232.265 175.753L231.477 175.3L295.812 82.7288L296.601 83.1827Z" fill="#127351"/>
<path fill-rule="evenodd" clip-rule="evenodd" d="M297.385 83.6366L233.05 176.203L232.261 175.749L296.596 83.1826L297.385 83.6366Z" fill="#033624"/>
<path fill-rule="evenodd" clip-rule="evenodd" d="M273.942 86.8057L217.888 167.458L217.1 167.004L272.451 87.3624L273.942 86.8057Z" fill="#127351"/>
<path fill-rule="evenodd" clip-rule="evenodd" d="M275.421 86.2576L218.673 167.908L217.884 167.454L273.929 86.81L275.421 86.2576Z" fill="#033624"/>
<path fill-rule="evenodd" clip-rule="evenodd" d="M246.766 96.9211L203.512 159.163L202.723 158.709L245.279 97.4736L246.766 96.9211Z" fill="#127351"/>
<path fill-rule="evenodd" clip-rule="evenodd" d="M248.249 96.3687L204.296 159.617L203.507 159.159L246.758 96.9254L248.249 96.3687Z" fill="#033624"/>
<path fill-rule="evenodd" clip-rule="evenodd" d="M219.607 107.028L189.135 150.872L188.346 150.414L218.116 107.584L219.607 107.028Z" fill="#127351"/>
<path fill-rule="evenodd" clip-rule="evenodd" d="M221.082 106.479L189.919 151.322L189.131 150.868L219.594 107.032L221.082 106.479Z" fill="#033624"/>
<path d="M192.436 117.143L174.758 142.577L173.969 142.123L190.944 117.696L192.436 117.143Z" fill="#127351"/>
<path d="M193.914 116.591L175.543 143.027L174.754 142.573L192.423 117.147L193.914 116.591Z" fill="#033624"/>
<path fill-rule="evenodd" clip-rule="evenodd" d="M344.069 123.126L292.674 197.65L292.559 161.441L344.069 123.126Z" fill="#7F7F7F"/>
<path fill-rule="evenodd" clip-rule="evenodd" d="M251.734 136.299L292.554 160.032L292.67 197.65L251.661 173.625L251.734 136.299Z" fill="#CCCCCC"/>
<path fill-rule="evenodd" clip-rule="evenodd" d="M343.508 106.253L331.373 99.2293L331.343 68.2153L343.529 75.2215L343.508 106.253Z" fill="#B32D22"/>
<path fill-rule="evenodd" clip-rule="evenodd" d="M343.014 83.14L329.825 75.5085L329.791 66.314L343.04 73.9326L343.014 83.14Z" fill="#CCCCCC"/>
<path fill-rule="evenodd" clip-rule="evenodd" d="M368.575 68.3609L343.014 83.1399L343.04 73.9325L368.575 59.1621V68.3609Z" fill="#7F7F7F"/>
<path fill-rule="evenodd" clip-rule="evenodd" d="M362.376 222.762L376.119 242.488L376.912 242.038L362.402 221.204L362.376 222.762Z" fill="#033624"/>
<path fill-rule="evenodd" clip-rule="evenodd" d="M362.355 224.321L375.33 242.942L376.119 242.488L362.376 222.762L362.355 224.321Z" fill="#0B573C"/>
<path fill-rule="evenodd" clip-rule="evenodd" d="M362.792 194.378L390.534 234.248L391.327 233.799L362.818 192.823L362.792 194.378Z" fill="#033624"/>
<path fill-rule="evenodd" clip-rule="evenodd" d="M362.771 195.937L389.741 234.702L390.534 234.248L362.792 194.382L362.771 195.937Z" fill="#0B573C"/>
<path fill-rule="evenodd" clip-rule="evenodd" d="M363.208 165.947L404.95 226.009L405.742 225.559L363.234 164.388L363.208 165.947Z" fill="#033624"/>
<path fill-rule="evenodd" clip-rule="evenodd" d="M363.187 167.501L404.161 226.463L404.949 226.009L363.208 165.942L363.187 167.501Z" fill="#0B573C"/>
<path fill-rule="evenodd" clip-rule="evenodd" d="M363.624 137.566L419.365 217.773L420.154 217.319L363.65 136.012L363.624 137.566Z" fill="#033624"/>
<path fill-rule="evenodd" clip-rule="evenodd" d="M363.602 139.121L418.576 218.223L419.365 217.769L363.624 137.562L363.602 139.121Z" fill="#0B573C"/>
<path fill-rule="evenodd" clip-rule="evenodd" d="M377.113 127.999L433.78 209.534L434.573 209.08L378.725 128.727L377.113 127.999Z" fill="#033624"/>
<path fill-rule="evenodd" clip-rule="evenodd" d="M375.51 127.275L432.992 209.984L433.78 209.53L377.118 127.999L375.51 127.275Z" fill="#0B573C"/>
<path fill-rule="evenodd" clip-rule="evenodd" d="M406.467 141.253L448.195 201.294L448.988 200.84L408.083 141.981L406.467 141.253Z" fill="#033624"/>
<path fill-rule="evenodd" clip-rule="evenodd" d="M404.864 140.525L447.407 201.744L448.2 201.294L406.475 141.253L404.864 140.525Z" fill="#0B573C"/>
<path fill-rule="evenodd" clip-rule="evenodd" d="M435.816 154.504L462.611 193.055L463.4 192.605L437.424 155.227L435.816 154.504Z" fill="#033624"/>
<path fill-rule="evenodd" clip-rule="evenodd" d="M434.213 153.78L461.822 193.504L462.615 193.055L435.825 154.508L434.213 153.78Z" fill="#0B573C"/>
<path fill-rule="evenodd" clip-rule="evenodd" d="M465.17 167.758L477.026 184.815L477.815 184.365L466.777 168.482L465.17 167.758Z" fill="#033624"/>
<path fill-rule="evenodd" clip-rule="evenodd" d="M463.567 167.034L476.238 185.265L477.031 184.815L465.179 167.758L463.567 167.034Z" fill="#0B573C"/>
<path fill-rule="evenodd" clip-rule="evenodd" d="M292.576 167.578L251.717 144.016L251.734 136.44L251.833 136.359L292.554 160.032L292.576 167.578Z" fill="#666666"/>
<path fill-rule="evenodd" clip-rule="evenodd" d="M351.72 115.032L293.917 161.84L246.475 134.479L304.286 87.6709L351.72 115.032Z" fill="#127351"/>
<path fill-rule="evenodd" clip-rule="evenodd" d="M351.72 115.032L293.922 161.84L293.917 165.039L347.254 121.862L351.72 115.032Z" fill="#033624"/>
<path fill-rule="evenodd" clip-rule="evenodd" d="M343.756 110.437L285.945 157.24L285.1 156.756L342.912 109.953L343.756 110.437Z" fill="#139165"/>
<path fill-rule="evenodd" clip-rule="evenodd" d="M344.596 110.925L286.789 157.728L285.949 157.244L343.76 110.441L344.596 110.925Z" fill="#033624"/>
<path fill-rule="evenodd" clip-rule="evenodd" d="M328.41 101.585L270.599 148.393L269.759 147.904L327.57 101.101L328.41 101.585Z" fill="#139165"/>
<path fill-rule="evenodd" clip-rule="evenodd" d="M329.255 102.073L271.439 148.877L270.599 148.393L328.415 101.589L329.255 102.073Z" fill="#033624"/>
<path fill-rule="evenodd" clip-rule="evenodd" d="M313.074 92.7413L255.253 139.541L254.413 139.057L312.225 92.2488L313.074 92.7413Z" fill="#139165"/>
<path fill-rule="evenodd" clip-rule="evenodd" d="M313.914 93.2253L256.094 140.025L255.249 139.541L313.065 92.7371L313.914 93.2253Z" fill="#033624"/>
<path fill-rule="evenodd" clip-rule="evenodd" d="M270.599 148.393L269.759 147.904L270.599 148.393Z" fill="#127351"/>
<path fill-rule="evenodd" clip-rule="evenodd" d="M256.094 140.024L255.249 139.541L256.094 140.024Z" fill="#033624"/>
<path fill-rule="evenodd" clip-rule="evenodd" d="M280.788 186.139C280.788 176.374 280.788 165.874 280.788 156.11C275.087 152.863 269.386 149.622 263.681 146.38C263.681 156.127 263.681 166.606 263.681 176.349C269.386 179.608 275.091 182.871 280.788 186.139Z" fill="#7F7F7F"/>
<path fill-rule="evenodd" clip-rule="evenodd" d="M280.788 186.138V166.529C275.083 169.771 269.382 173.017 263.681 176.259V176.344C269.386 179.608 275.091 182.871 280.788 186.138Z" fill="#E5E5E5"/>
<path fill-rule="evenodd" clip-rule="evenodd" d="M280.788 184.336V156.105C275.623 153.167 270.453 150.225 265.288 147.288V175.458C270.458 178.421 275.627 181.381 280.788 184.336Z" fill="white"/>
<path fill-rule="evenodd" clip-rule="evenodd" d="M280.788 156.109C276.026 153.399 271.263 150.688 266.497 147.981V174.349C271.263 177.077 276.026 179.8 280.788 182.528V156.109Z" fill="#00A1B3"/>
<path fill-rule="evenodd" clip-rule="evenodd" d="M280.788 159.369L266.497 151.125V147.977C271.263 150.684 276.026 153.399 280.788 156.105V159.369Z" fill="#006873"/>
<path fill-rule="evenodd" clip-rule="evenodd" d="M275.138 152.889V181.102L274.032 180.468V152.26L275.138 152.889Z" fill="white"/>
<path fill-rule="evenodd" clip-rule="evenodd" d="M280.689 168.387C275.927 165.677 271.165 162.966 266.398 160.259V161.458C271.16 164.186 275.927 166.91 280.689 169.638V168.387Z" fill="white"/>
<path fill-rule="evenodd" clip-rule="evenodd" d="M246.475 134.479L293.922 161.84L293.917 165.039L246.479 137.678L246.475 134.479Z" fill="#05402B"/>
<path fill-rule="evenodd" clip-rule="evenodd" d="M106.711 314.657C99.2049 314.657 93.1182 317.881 93.1182 321.856C93.1182 325.834 99.2049 329.055 106.711 329.055C114.216 329.055 120.303 325.83 120.303 321.856C120.303 317.881 114.216 314.657 106.711 314.657Z" fill="#547325"/>
<path fill-rule="evenodd" clip-rule="evenodd" d="M106.376 310.618C107.135 310.618 107.752 311.239 107.752 311.993V321.051C107.752 321.809 107.135 322.425 106.376 322.425C105.618 322.425 105 321.809 105 321.051V311.993C105.005 311.239 105.622 310.618 106.376 310.618Z" fill="#5D3627"/>
<path fill-rule="evenodd" clip-rule="evenodd" d="M102.45 309.753C102.977 312.584 103.075 315.415 105.322 318.246C105.827 318.884 106.685 322.254 105 320.1C102.055 316.323 101.948 312.794 101.207 309.869C100.752 308.075 102.128 308.036 102.45 309.753Z" fill="#5D3627"/>
<path fill-rule="evenodd" clip-rule="evenodd" d="M110.35 308.225C109.822 311.055 109.724 313.886 107.478 316.717C106.972 317.355 106.115 320.725 107.795 318.571C110.74 314.794 110.847 311.265 111.588 308.336C112.051 306.546 110.671 306.507 110.35 308.225Z" fill="#5D3627"/>
<path fill-rule="evenodd" clip-rule="evenodd" d="M106.505 241.691C117.217 241.691 127.114 314.224 106.505 314.224C83.9665 314.224 95.7929 241.691 106.505 241.691Z" fill="#2E450C"/>
<path fill-rule="evenodd" clip-rule="evenodd" d="M107.756 244.12C116.291 244.12 124.173 307.406 107.756 307.406C89.8046 307.406 99.222 244.12 107.756 244.12Z" fill="#3A5413"/>
<path fill-rule="evenodd" clip-rule="evenodd" d="M108.382 246.492C112.45 246.492 118.078 283.977 110.255 283.977C101.7 283.973 104.314 246.492 108.382 246.492Z" fill="#456319"/>
<path fill-rule="evenodd" clip-rule="evenodd" d="M127.585 325.307C120.08 325.307 113.993 328.532 113.993 332.506C113.993 336.48 120.08 339.705 127.585 339.705C135.091 339.705 141.178 336.48 141.178 332.506C141.182 328.532 135.091 325.307 127.585 325.307Z" fill="#547325"/>
<path fill-rule="evenodd" clip-rule="evenodd" d="M127.256 321.273C128.014 321.273 128.632 321.894 128.632 322.648V331.706C128.632 332.464 128.014 333.08 127.256 333.08C126.497 333.08 125.88 332.464 125.88 331.706V322.648C125.88 321.89 126.497 321.273 127.256 321.273Z" fill="#5D3627"/>
<path fill-rule="evenodd" clip-rule="evenodd" d="M123.325 320.404C123.852 323.235 123.951 326.066 126.197 328.896C126.703 329.534 127.56 332.905 125.88 330.751C122.935 326.973 122.828 323.445 122.082 320.515C121.627 318.725 123.003 318.691 123.325 320.404Z" fill="#5D3627"/>
<path fill-rule="evenodd" clip-rule="evenodd" d="M131.229 318.875C130.702 321.706 130.603 324.537 128.357 327.367C127.851 328.006 126.994 331.376 128.679 329.222C131.623 325.445 131.731 321.916 132.472 318.987C132.927 317.196 131.551 317.158 131.229 318.875Z" fill="#5D3627"/>
<path fill-rule="evenodd" clip-rule="evenodd" d="M127.384 252.342C138.096 252.342 147.993 324.875 127.384 324.875C104.842 324.875 116.668 252.342 127.384 252.342Z" fill="#2E450C"/>
<path fill-rule="evenodd" clip-rule="evenodd" d="M128.631 254.77C137.166 254.77 145.049 318.057 128.631 318.057C110.68 318.057 120.101 254.77 128.631 254.77Z" fill="#3A5413"/>
<path fill-rule="evenodd" clip-rule="evenodd" d="M129.257 257.143C133.325 257.143 138.953 294.623 131.131 294.623C122.579 294.628 125.194 257.143 129.257 257.143Z" fill="#456319"/>
<path fill-rule="evenodd" clip-rule="evenodd" d="M325.697 436.092C318.191 436.092 312.105 439.316 312.105 443.291C312.105 447.265 318.191 450.49 325.697 450.49C333.203 450.49 339.289 447.265 339.289 443.291C339.289 439.312 333.203 436.092 325.697 436.092Z" fill="#547325"/>
<path fill-rule="evenodd" clip-rule="evenodd" d="M325.367 432.053C326.126 432.053 326.743 432.674 326.743 433.428V442.485C326.743 443.243 326.126 443.86 325.367 443.86C324.608 443.86 323.991 443.243 323.991 442.485V433.428C323.991 432.674 324.608 432.053 325.367 432.053Z" fill="#5D3627"/>
<path fill-rule="evenodd" clip-rule="evenodd" d="M321.436 431.184C321.964 434.015 322.062 436.845 324.308 439.676C324.814 440.314 325.672 443.685 323.991 441.53C321.046 437.753 320.939 434.224 320.198 431.295C319.739 429.509 321.115 429.471 321.436 431.184Z" fill="#5D3627"/>
<path fill-rule="evenodd" clip-rule="evenodd" d="M329.341 429.655C328.813 432.486 328.715 435.317 326.469 438.147C325.963 438.785 325.106 442.156 326.79 440.002C329.735 436.224 329.842 432.696 330.584 429.766C331.038 427.976 329.662 427.942 329.341 429.655Z" fill="#5D3627"/>
<path fill-rule="evenodd" clip-rule="evenodd" d="M325.491 363.126C336.203 363.126 346.101 435.659 325.491 435.659C302.953 435.659 314.779 363.126 325.491 363.126Z" fill="#2E450C"/>
<path fill-rule="evenodd" clip-rule="evenodd" d="M326.743 365.554C335.277 365.554 343.16 428.841 326.743 428.841C308.791 428.841 318.213 365.554 326.743 365.554Z" fill="#3A5413"/>
<path fill-rule="evenodd" clip-rule="evenodd" d="M327.369 367.923C331.437 367.923 337.065 405.403 329.242 405.403C320.686 405.407 323.301 367.923 327.369 367.923Z" fill="#456319"/>
<path fill-rule="evenodd" clip-rule="evenodd" d="M346.577 446.742C339.071 446.742 332.984 449.967 332.984 453.941C332.984 457.92 339.071 461.14 346.577 461.14C354.082 461.14 360.169 457.915 360.169 453.941C360.169 449.967 354.082 446.742 346.577 446.742Z" fill="#547325"/>
<path fill-rule="evenodd" clip-rule="evenodd" d="M346.242 442.704C347.001 442.704 347.618 443.325 347.618 444.079V453.136C347.618 453.894 347.001 454.511 346.242 454.511C345.483 454.511 344.866 453.894 344.866 453.136V444.079C344.866 443.325 345.488 442.704 346.242 442.704Z" fill="#5D3627"/>
<path fill-rule="evenodd" clip-rule="evenodd" d="M342.311 441.839C342.839 444.67 342.937 447.5 345.183 450.331C345.689 450.969 346.546 454.339 344.866 452.185C341.921 448.408 341.814 444.879 341.073 441.954C340.614 440.16 341.994 440.122 342.311 441.839Z" fill="#5D3627"/>
<path fill-rule="evenodd" clip-rule="evenodd" d="M350.216 440.306C349.688 443.136 349.59 445.967 347.344 448.798C346.838 449.436 345.981 452.806 347.665 450.652C350.61 446.875 350.717 443.346 351.459 440.417C351.913 438.631 350.537 438.593 350.216 440.306Z" fill="#5D3627"/>
<path fill-rule="evenodd" clip-rule="evenodd" d="M346.371 373.777C357.083 373.777 366.98 446.31 346.371 446.31C323.833 446.31 335.655 373.777 346.371 373.777Z" fill="#2E450C"/>
<path fill-rule="evenodd" clip-rule="evenodd" d="M347.623 376.205C356.157 376.205 364.04 439.492 347.623 439.492C329.671 439.492 339.088 376.205 347.623 376.205Z" fill="#3A5413"/>
<path fill-rule="evenodd" clip-rule="evenodd" d="M348.248 378.578C352.316 378.578 357.944 416.062 350.122 416.062C341.566 416.058 344.18 378.578 348.248 378.578Z" fill="#456319"/>
<path fill-rule="evenodd" clip-rule="evenodd" d="M516.976 344.694C517.735 344.694 518.352 345.315 518.352 346.069V355.127C518.352 355.885 517.735 356.501 516.976 356.501C516.217 356.501 515.6 355.885 515.6 355.127V346.069C515.6 345.311 516.217 344.694 516.976 344.694Z" fill="#5D3627"/>
<path fill-rule="evenodd" clip-rule="evenodd" d="M513.045 343.825C513.573 346.656 513.671 349.486 515.917 352.317C516.423 352.955 517.28 356.326 515.596 354.172C512.651 350.394 512.544 346.866 511.802 343.941C511.348 342.146 512.724 342.112 513.045 343.825Z" fill="#5D3627"/>
<path fill-rule="evenodd" clip-rule="evenodd" d="M520.95 342.296C520.423 345.127 520.324 347.958 518.078 350.788C517.572 351.426 516.715 354.797 518.395 352.643C521.34 348.866 521.447 345.337 522.193 342.407C522.647 340.617 521.271 340.583 520.95 342.296Z" fill="#5D3627"/>
<path fill-rule="evenodd" clip-rule="evenodd" d="M517.1 275.767C527.812 275.767 537.71 348.3 517.1 348.3C494.562 348.296 506.389 275.767 517.1 275.767Z" fill="#2E450C"/>
<path fill-rule="evenodd" clip-rule="evenodd" d="M518.352 278.191C526.886 278.191 534.769 341.478 518.352 341.478C500.4 341.478 509.822 278.191 518.352 278.191Z" fill="#3A5413"/>
<path fill-rule="evenodd" clip-rule="evenodd" d="M518.978 280.564C523.046 280.564 528.678 318.044 520.851 318.044C512.299 318.049 514.914 280.564 518.978 280.564Z" fill="#456319"/>
</g>
<defs>
<clipPath id="clip0">
<rect width="600" height="500.415" fill="white"/>
</clipPath>
</defs>
</svg>
